<svg width="1280" height="253" viewBox="0 0 1280 253" fill="none" xmlns="http://www.w3.org/2000/svg">
<rect width="1280" height="253" fill="#FF7F00"/>
<path d="M643.765 200.087L643.87 202.007C643.87 202.637 643.765 203.087 643.555 203.357C643.355 203.627 642.9 203.847 642.19 204.017C642.89 204.187 643.345 204.427 643.555 204.737C643.775 205.037 643.885 205.507 643.885 206.147L643.78 207.902C643.78 208.242 643.85 208.507 643.99 208.697C644.14 208.887 644.425 208.997 644.845 209.027V210.737C643.735 210.697 642.95 210.482 642.49 210.092C642.04 209.702 641.815 209.057 641.815 208.157L641.92 206.342C641.92 205.612 641.36 205.102 640.24 204.812V203.252C641.36 202.992 641.92 202.522 641.92 201.842L641.815 199.937C641.815 198.987 642.04 198.322 642.49 197.942C642.95 197.562 643.745 197.352 644.875 197.312V199.022C644.445 199.062 644.15 199.167 643.99 199.337C643.84 199.507 643.765 199.757 643.765 200.087ZM650.67 202.127H648.9L648.84 198.527H650.775L650.67 202.127ZM648.09 202.127H646.32L646.245 198.527H648.18L648.09 202.127ZM652.517 211.877V201.227H654.512V201.632C655.162 201.242 655.732 201.047 656.222 201.047C657.232 201.047 657.977 201.352 658.457 201.962C658.937 202.562 659.177 203.587 659.177 205.037C659.177 206.487 658.912 207.497 658.382 208.067C657.852 208.627 656.982 208.907 655.772 208.907C655.442 208.907 655.087 208.877 654.707 208.817L654.527 208.787V211.877H652.517ZM655.832 202.847C655.462 202.847 655.087 202.922 654.707 203.072L654.527 203.147V207.077C654.977 207.137 655.342 207.167 655.622 207.167C656.202 207.167 656.597 206.997 656.807 206.657C657.027 206.317 657.137 205.737 657.137 204.917C657.137 203.537 656.702 202.847 655.832 202.847ZM664.82 202.127H663.05L662.99 198.527H664.925L664.82 202.127ZM662.24 202.127H660.47L660.395 198.527H662.33L662.24 202.127ZM666.577 204.392V201.902H668.737V204.392H666.577ZM666.577 208.727V206.237H668.737V208.727H666.577ZM674.825 202.127H673.055L672.995 198.527H674.93L674.825 202.127ZM672.245 202.127H670.475L670.4 198.527H672.335L672.245 202.127ZM680.302 201.047C681.352 201.047 682.117 201.337 682.597 201.917C683.087 202.487 683.332 203.512 683.332 204.992C683.332 206.472 683.052 207.497 682.492 208.067C681.932 208.627 680.967 208.907 679.597 208.907C679.167 208.907 678.382 208.857 677.242 208.757L676.672 208.697V198.227H678.682V201.452C679.322 201.182 679.862 201.047 680.302 201.047ZM679.597 207.107C680.267 207.107 680.717 206.947 680.947 206.627C681.177 206.297 681.292 205.712 681.292 204.872C681.292 203.522 680.872 202.847 680.032 202.847C679.632 202.847 679.252 202.897 678.892 202.997L678.682 203.042V207.047C679.142 207.087 679.447 207.107 679.597 207.107ZM684.831 208.727V201.227H686.826V202.022C687.666 201.522 688.466 201.197 689.226 201.047V203.072C688.416 203.242 687.721 203.417 687.141 203.597L686.841 203.702V208.727H684.831ZM693.217 201.047C693.737 201.047 694.402 201.127 695.212 201.287L695.617 201.377L695.557 202.967C694.767 202.887 694.182 202.847 693.802 202.847C693.112 202.847 692.652 202.997 692.422 203.297C692.202 203.587 692.092 204.142 692.092 204.962C692.092 205.782 692.202 206.347 692.422 206.657C692.652 206.957 693.117 207.107 693.817 207.107L695.557 206.987L695.617 208.592C694.547 208.802 693.732 208.907 693.172 208.907C692.062 208.907 691.262 208.597 690.772 207.977C690.292 207.347 690.052 206.342 690.052 204.962C690.052 203.582 690.302 202.587 690.802 201.977C691.302 201.357 692.107 201.047 693.217 201.047ZM696.768 205.652V203.822H701.208V205.652H696.768ZM709.446 208.727H703.026V206.972L705.141 204.827C705.891 204.057 706.411 203.467 706.701 203.057C707.001 202.647 707.151 202.212 707.151 201.752C707.151 201.282 707.026 200.952 706.776 200.762C706.536 200.572 706.191 200.477 705.741 200.477C705.071 200.477 704.341 200.537 703.551 200.657L703.191 200.702L703.086 199.097C704.066 198.797 705.081 198.647 706.131 198.647C708.231 198.647 709.281 199.592 709.281 201.482C709.281 202.222 709.121 202.862 708.801 203.402C708.481 203.942 707.901 204.597 707.061 205.367L705.336 206.927H709.446V208.727ZM711.764 199.877C712.414 199.057 713.374 198.647 714.644 198.647C715.914 198.647 716.869 199.057 717.509 199.877C718.159 200.697 718.484 202.017 718.484 203.837C718.484 205.647 718.164 206.947 717.524 207.737C716.884 208.517 715.924 208.907 714.644 208.907C713.364 208.907 712.404 208.517 711.764 207.737C711.124 206.947 710.804 205.647 710.804 203.837C710.804 202.017 711.124 200.697 711.764 199.877ZM716.354 203.792C716.354 202.552 716.224 201.687 715.964 201.197C715.704 200.697 715.264 200.447 714.644 200.447C714.034 200.447 713.594 200.697 713.324 201.197C713.064 201.697 712.934 202.562 712.934 203.792C712.934 205.022 713.069 205.882 713.339 206.372C713.609 206.862 714.049 207.107 714.659 207.107C715.269 207.107 715.704 206.862 715.964 206.372C716.224 205.882 716.354 205.022 716.354 203.792ZM724.088 202.127H722.318L722.258 198.527H724.193L724.088 202.127ZM721.508 202.127H719.738L719.663 198.527H721.598L721.508 202.127ZM723.43 210.572L724.18 206.672H726.4L725.05 210.572H723.43ZM730.445 202.127H728.675L728.615 198.527H730.55L730.445 202.127ZM727.865 202.127H726.095L726.02 198.527H727.955L727.865 202.127ZM732.536 202.082C733.066 201.392 733.951 201.047 735.191 201.047C736.431 201.047 737.316 201.392 737.846 202.082C738.376 202.762 738.641 203.722 738.641 204.962C738.641 207.592 737.491 208.907 735.191 208.907C732.891 208.907 731.741 207.592 731.741 204.962C731.741 203.722 732.006 202.762 732.536 202.082ZM734.081 206.657C734.291 207.017 734.661 207.197 735.191 207.197C735.721 207.197 736.086 207.017 736.286 206.657C736.496 206.297 736.601 205.732 736.601 204.962C736.601 204.192 736.496 203.632 736.286 203.282C736.086 202.932 735.721 202.757 735.191 202.757C734.661 202.757 734.291 202.932 734.081 203.282C733.881 203.632 733.781 204.192 733.781 204.962C733.781 205.732 733.881 206.297 734.081 206.657ZM740.115 211.877V201.227H742.11V201.632C742.76 201.242 743.33 201.047 743.82 201.047C744.83 201.047 745.575 201.352 746.055 201.962C746.535 202.562 746.775 203.587 746.775 205.037C746.775 206.487 746.51 207.497 745.98 208.067C745.45 208.627 744.58 208.907 743.37 208.907C743.04 208.907 742.685 208.877 742.305 208.817L742.125 208.787V211.877H740.115ZM743.43 202.847C743.06 202.847 742.685 202.922 742.305 203.072L742.125 203.147V207.077C742.575 207.137 742.94 207.167 743.22 207.167C743.8 207.167 744.195 206.997 744.405 206.657C744.625 206.317 744.735 205.737 744.735 204.917C744.735 203.537 744.3 202.847 743.43 202.847ZM752.418 202.127H750.648L750.588 198.527H752.523L752.418 202.127ZM749.838 202.127H748.068L747.993 198.527H749.928L749.838 202.127ZM754.175 204.392V201.902H756.335V204.392H754.175ZM754.175 208.727V206.237H756.335V208.727H754.175ZM762.423 202.127H760.653L760.593 198.527H762.528L762.423 202.127ZM759.843 202.127H758.073L757.998 198.527H759.933L759.843 202.127ZM770.454 198.227V208.727H768.459V208.412C767.759 208.742 767.154 208.907 766.644 208.907C765.554 208.907 764.794 208.592 764.364 207.962C763.934 207.332 763.719 206.337 763.719 204.977C763.719 203.607 763.974 202.612 764.484 201.992C765.004 201.362 765.784 201.047 766.824 201.047C767.144 201.047 767.589 201.097 768.159 201.197L768.444 201.257V198.227H770.454ZM768.234 206.927L768.444 206.882V202.937C767.894 202.837 767.404 202.787 766.974 202.787C766.164 202.787 765.759 203.507 765.759 204.947C765.759 205.727 765.849 206.282 766.029 206.612C766.209 206.942 766.504 207.107 766.914 207.107C767.334 207.107 767.774 207.047 768.234 206.927ZM773.962 205.832C773.972 206.292 774.092 206.627 774.322 206.837C774.562 207.037 774.902 207.137 775.342 207.137C776.272 207.137 777.102 207.107 777.832 207.047L778.252 207.002L778.282 208.487C777.132 208.767 776.092 208.907 775.162 208.907C774.032 208.907 773.212 208.607 772.702 208.007C772.192 207.407 771.937 206.432 771.937 205.082C771.937 202.392 773.042 201.047 775.252 201.047C777.432 201.047 778.522 202.177 778.522 204.437L778.372 205.832H773.962ZM776.542 204.302C776.542 203.702 776.447 203.287 776.257 203.057C776.067 202.817 775.732 202.697 775.252 202.697C774.782 202.697 774.447 202.822 774.247 203.072C774.057 203.312 773.957 203.722 773.947 204.302H776.542ZM779.958 211.877V201.227H781.953V201.632C782.603 201.242 783.173 201.047 783.663 201.047C784.673 201.047 785.418 201.352 785.898 201.962C786.378 202.562 786.618 203.587 786.618 205.037C786.618 206.487 786.353 207.497 785.823 208.067C785.293 208.627 784.423 208.907 783.213 208.907C782.883 208.907 782.528 208.877 782.148 208.817L781.968 208.787V211.877H779.958ZM783.273 202.847C782.903 202.847 782.528 202.922 782.148 203.072L781.968 203.147V207.077C782.418 207.137 782.783 207.167 783.063 207.167C783.643 207.167 784.038 206.997 784.248 206.657C784.468 206.317 784.578 205.737 784.578 204.917C784.578 203.537 784.143 202.847 783.273 202.847ZM788.208 208.727V198.227H790.218V208.727H788.208ZM792.565 202.082C793.095 201.392 793.98 201.047 795.22 201.047C796.46 201.047 797.345 201.392 797.875 202.082C798.405 202.762 798.67 203.722 798.67 204.962C798.67 207.592 797.52 208.907 795.22 208.907C792.92 208.907 791.77 207.592 791.77 204.962C791.77 203.722 792.035 202.762 792.565 202.082ZM794.11 206.657C794.32 207.017 794.69 207.197 795.22 207.197C795.75 207.197 796.115 207.017 796.315 206.657C796.525 206.297 796.63 205.732 796.63 204.962C796.63 204.192 796.525 203.632 796.315 203.282C796.115 202.932 795.75 202.757 795.22 202.757C794.69 202.757 794.32 202.932 794.11 203.282C793.91 203.632 793.81 204.192 793.81 204.962C793.81 205.732 793.91 206.297 794.11 206.657ZM799.322 201.227H801.302L802.667 207.017H803.012L804.377 201.227H806.357L803.717 211.877H801.752L802.577 208.727H801.167L799.322 201.227ZM811.832 202.127H810.062L810.002 198.527H811.937L811.832 202.127ZM809.252 202.127H807.482L807.407 198.527H809.342L809.252 202.127ZM811.174 210.572L811.924 206.672H814.144L812.794 210.572H811.174ZM818.189 202.127H816.419L816.359 198.527H818.294L818.189 202.127ZM815.609 202.127H813.839L813.764 198.527H815.699L815.609 202.127ZM824.191 202.937H822.346V206.012C822.346 206.312 822.351 206.527 822.361 206.657C822.381 206.777 822.436 206.882 822.526 206.972C822.626 207.062 822.776 207.107 822.976 207.107L824.116 207.077L824.206 208.682C823.536 208.832 823.026 208.907 822.676 208.907C821.776 208.907 821.161 208.707 820.831 208.307C820.501 207.897 820.336 207.147 820.336 206.057V202.937H819.451V201.227H820.336V199.142H822.346V201.227H824.191V202.937ZM825.5 208.727V201.227H827.51V208.727H825.5ZM825.5 200.267V198.227H827.51V200.267H825.5ZM832.173 201.047C832.693 201.047 833.358 201.127 834.168 201.287L834.573 201.377L834.513 202.967C833.723 202.887 833.138 202.847 832.758 202.847C832.068 202.847 831.608 202.997 831.378 203.297C831.158 203.587 831.048 204.142 831.048 204.962C831.048 205.782 831.158 206.347 831.378 206.657C831.608 206.957 832.073 207.107 832.773 207.107L834.513 206.987L834.573 208.592C833.503 208.802 832.688 208.907 832.128 208.907C831.018 208.907 830.218 208.597 829.728 207.977C829.248 207.347 829.008 206.342 829.008 204.962C829.008 203.582 829.258 202.587 829.758 201.977C830.258 201.357 831.063 201.047 832.173 201.047ZM838.072 208.727H836.062V198.227H838.072V204.197L838.837 204.062L840.322 201.227H842.572L840.622 204.782L842.677 208.727H840.412L838.897 205.802L838.072 205.937V208.727ZM848.102 202.127H846.332L846.272 198.527H848.207L848.102 202.127ZM845.522 202.127H843.752L843.677 198.527H845.612L845.522 202.127ZM849.859 204.392V201.902H852.019V204.392H849.859ZM849.859 208.727V206.237H852.019V208.727H849.859ZM858.106 202.127H856.336L856.276 198.527H858.211L858.106 202.127ZM855.526 202.127H853.756L853.681 198.527H855.616L855.526 202.127ZM865.338 203.102C864.098 202.942 863.228 202.862 862.728 202.862C862.238 202.862 861.918 202.907 861.768 202.997C861.628 203.087 861.558 203.232 861.558 203.432C861.558 203.622 861.653 203.757 861.843 203.837C862.043 203.907 862.543 204.017 863.343 204.167C864.153 204.307 864.728 204.542 865.068 204.872C865.408 205.202 865.578 205.737 865.578 206.477C865.578 208.097 864.573 208.907 862.563 208.907C861.903 208.907 861.103 208.817 860.163 208.637L859.683 208.547L859.743 206.867C860.983 207.027 861.843 207.107 862.323 207.107C862.813 207.107 863.143 207.062 863.313 206.972C863.493 206.872 863.583 206.727 863.583 206.537C863.583 206.347 863.488 206.207 863.298 206.117C863.118 206.027 862.638 205.917 861.858 205.787C861.088 205.657 860.513 205.437 860.133 205.127C859.753 204.817 859.563 204.267 859.563 203.477C859.563 202.677 859.833 202.077 860.373 201.677C860.913 201.267 861.608 201.062 862.458 201.062C863.048 201.062 863.853 201.157 864.873 201.347L865.368 201.437L865.338 203.102ZM872.774 203.567V206.687C872.794 206.927 872.834 207.097 872.894 207.197C872.954 207.287 873.079 207.352 873.269 207.392L873.209 208.907C872.699 208.907 872.289 208.872 871.979 208.802C871.679 208.732 871.374 208.592 871.064 208.382C870.344 208.732 869.609 208.907 868.859 208.907C867.309 208.907 866.534 208.087 866.534 206.447C866.534 205.647 866.749 205.082 867.179 204.752C867.609 204.412 868.269 204.212 869.159 204.152L870.764 204.032V203.567C870.764 203.257 870.694 203.047 870.554 202.937C870.414 202.817 870.189 202.757 869.879 202.757L867.059 202.877L866.999 201.482C868.069 201.192 869.084 201.047 870.044 201.047C871.014 201.047 871.709 201.247 872.129 201.647C872.559 202.047 872.774 202.687 872.774 203.567ZM869.399 205.547C868.839 205.597 868.559 205.897 868.559 206.447C868.559 206.997 868.804 207.272 869.294 207.272C869.674 207.272 870.089 207.212 870.539 207.092L870.764 207.032V205.427L869.399 205.547ZM878.845 202.937H877V206.012C877 206.312 877.005 206.527 877.015 206.657C877.035 206.777 877.09 206.882 877.18 206.972C877.28 207.062 877.43 207.107 877.63 207.107L878.77 207.077L878.86 208.682C878.19 208.832 877.68 208.907 877.33 208.907C876.43 208.907 875.815 208.707 875.485 208.307C875.155 207.897 874.99 207.147 874.99 206.057V202.937H874.105V201.227H874.99V199.142H877V201.227H878.845V202.937ZM885.539 203.102C884.299 202.942 883.429 202.862 882.929 202.862C882.439 202.862 882.119 202.907 881.969 202.997C881.829 203.087 881.759 203.232 881.759 203.432C881.759 203.622 881.854 203.757 882.044 203.837C882.244 203.907 882.744 204.017 883.544 204.167C884.354 204.307 884.929 204.542 885.269 204.872C885.609 205.202 885.779 205.737 885.779 206.477C885.779 208.097 884.774 208.907 882.764 208.907C882.104 208.907 881.304 208.817 880.364 208.637L879.884 208.547L879.944 206.867C881.184 207.027 882.044 207.107 882.524 207.107C883.014 207.107 883.344 207.062 883.514 206.972C883.694 206.872 883.784 206.727 883.784 206.537C883.784 206.347 883.689 206.207 883.499 206.117C883.319 206.027 882.839 205.917 882.059 205.787C881.289 205.657 880.714 205.437 880.334 205.127C879.954 204.817 879.764 204.267 879.764 203.477C879.764 202.677 880.034 202.077 880.574 201.677C881.114 201.267 881.809 201.062 882.659 201.062C883.249 201.062 884.054 201.157 885.074 201.347L885.569 201.437L885.539 203.102ZM891.549 202.127H889.779L889.719 198.527H891.654L891.549 202.127ZM888.969 202.127H887.199L887.124 198.527H889.059L888.969 202.127ZM890.891 210.572L891.641 206.672H893.861L892.511 210.572H890.891ZM897.906 202.127H896.136L896.076 198.527H898.011L897.906 202.127ZM895.326 202.127H893.556L893.481 198.527H895.416L895.326 202.127ZM901.763 208.727H899.753V201.227H901.748V201.647C902.438 201.247 903.028 201.047 903.518 201.047C904.328 201.047 904.953 201.282 905.393 201.752C906.313 201.282 907.153 201.047 907.913 201.047C908.903 201.047 909.588 201.337 909.968 201.917C910.358 202.487 910.553 203.402 910.553 204.662V208.727H908.543V204.722C908.543 204.082 908.473 203.612 908.333 203.312C908.193 203.002 907.913 202.847 907.493 202.847C907.173 202.847 906.783 202.917 906.323 203.057L906.098 203.132C906.138 203.882 906.158 204.452 906.158 204.842V208.727H904.148V204.872C904.148 204.132 904.083 203.612 903.953 203.312C903.823 203.002 903.538 202.847 903.098 202.847C902.708 202.847 902.323 202.917 901.943 203.057L901.763 203.117V208.727ZM918.081 203.567V206.687C918.101 206.927 918.141 207.097 918.201 207.197C918.261 207.287 918.386 207.352 918.576 207.392L918.516 208.907C918.006 208.907 917.596 208.872 917.286 208.802C916.986 208.732 916.681 208.592 916.371 208.382C915.651 208.732 914.916 208.907 914.166 208.907C912.616 208.907 911.841 208.087 911.841 206.447C911.841 205.647 912.056 205.082 912.486 204.752C912.916 204.412 913.576 204.212 914.466 204.152L916.071 204.032V203.567C916.071 203.257 916.001 203.047 915.861 202.937C915.721 202.817 915.496 202.757 915.186 202.757L912.366 202.877L912.306 201.482C913.376 201.192 914.391 201.047 915.351 201.047C916.321 201.047 917.016 201.247 917.436 201.647C917.866 202.047 918.081 202.687 918.081 203.567ZM914.706 205.547C914.146 205.597 913.866 205.897 913.866 206.447C913.866 206.997 914.111 207.272 914.601 207.272C914.981 207.272 915.396 207.212 915.846 207.092L916.071 207.032V205.427L914.706 205.547ZM919.277 201.227H921.422L922.622 203.552L923.837 201.227H925.982L923.852 204.902L925.982 208.727H923.837L922.622 206.432L921.422 208.727H919.277L921.332 204.962L919.277 201.227ZM931.422 202.127H929.652L929.592 198.527H931.527L931.422 202.127ZM928.842 202.127H927.072L926.997 198.527H928.932L928.842 202.127ZM933.179 204.392V201.902H935.339V204.392H933.179ZM933.179 208.727V206.237H935.339V208.727H933.179ZM941.427 202.127H939.657L939.597 198.527H941.532L941.427 202.127ZM938.847 202.127H937.077L937.002 198.527H938.937L938.847 202.127ZM949.739 208.727H943.319V206.972L945.434 204.827C946.184 204.057 946.704 203.467 946.994 203.057C947.294 202.647 947.444 202.212 947.444 201.752C947.444 201.282 947.319 200.952 947.069 200.762C946.829 200.572 946.484 200.477 946.034 200.477C945.364 200.477 944.634 200.537 943.844 200.657L943.484 200.702L943.379 199.097C944.359 198.797 945.374 198.647 946.424 198.647C948.524 198.647 949.574 199.592 949.574 201.482C949.574 202.222 949.414 202.862 949.094 203.402C948.774 203.942 948.194 204.597 947.354 205.367L945.629 206.927H949.739V208.727ZM957.007 198.827V208.727H954.937V201.167L952.792 202.547L951.847 201.002L955.117 198.827H957.007ZM960.451 199.877C961.101 199.057 962.061 198.647 963.331 198.647C964.601 198.647 965.556 199.057 966.196 199.877C966.846 200.697 967.171 202.017 967.171 203.837C967.171 205.647 966.851 206.947 966.211 207.737C965.571 208.517 964.611 208.907 963.331 208.907C962.051 208.907 961.091 208.517 960.451 207.737C959.811 206.947 959.491 205.647 959.491 203.837C959.491 202.017 959.811 200.697 960.451 199.877ZM965.041 203.792C965.041 202.552 964.911 201.687 964.651 201.197C964.391 200.697 963.951 200.447 963.331 200.447C962.721 200.447 962.281 200.697 962.011 201.197C961.751 201.697 961.621 202.562 961.621 203.792C961.621 205.022 961.756 205.882 962.026 206.372C962.296 206.862 962.736 207.107 963.346 207.107C963.956 207.107 964.391 206.862 964.651 206.372C964.911 205.882 965.041 205.022 965.041 203.792ZM968.844 199.877C969.494 199.057 970.454 198.647 971.724 198.647C972.994 198.647 973.949 199.057 974.589 199.877C975.239 200.697 975.564 202.017 975.564 203.837C975.564 205.647 975.244 206.947 974.604 207.737C973.964 208.517 973.004 208.907 971.724 208.907C970.444 208.907 969.484 208.517 968.844 207.737C968.204 206.947 967.884 205.647 967.884 203.837C967.884 202.017 968.204 200.697 968.844 199.877ZM973.434 203.792C973.434 202.552 973.304 201.687 973.044 201.197C972.784 200.697 972.344 200.447 971.724 200.447C971.114 200.447 970.674 200.697 970.404 201.197C970.144 201.697 970.014 202.562 970.014 203.792C970.014 205.022 970.149 205.882 970.419 206.372C970.689 206.862 971.129 207.107 971.739 207.107C972.349 207.107 972.784 206.862 973.044 206.372C973.304 205.882 973.434 205.022 973.434 203.792ZM977.238 199.877C977.888 199.057 978.848 198.647 980.118 198.647C981.388 198.647 982.343 199.057 982.983 199.877C983.633 200.697 983.958 202.017 983.958 203.837C983.958 205.647 983.638 206.947 982.998 207.737C982.358 208.517 981.398 208.907 980.118 208.907C978.838 208.907 977.878 208.517 977.238 207.737C976.598 206.947 976.278 205.647 976.278 203.837C976.278 202.017 976.598 200.697 977.238 199.877ZM981.828 203.792C981.828 202.552 981.698 201.687 981.438 201.197C981.178 200.697 980.738 200.447 980.118 200.447C979.508 200.447 979.068 200.697 978.798 201.197C978.538 201.697 978.408 202.562 978.408 203.792C978.408 205.022 978.543 205.882 978.813 206.372C979.083 206.862 979.523 207.107 980.133 207.107C980.743 207.107 981.178 206.862 981.438 206.372C981.698 205.882 981.828 205.022 981.828 203.792ZM985.632 199.877C986.282 199.057 987.242 198.647 988.512 198.647C989.782 198.647 990.737 199.057 991.377 199.877C992.027 200.697 992.352 202.017 992.352 203.837C992.352 205.647 992.032 206.947 991.392 207.737C990.752 208.517 989.792 208.907 988.512 208.907C987.232 208.907 986.272 208.517 985.632 207.737C984.992 206.947 984.672 205.647 984.672 203.837C984.672 202.017 984.992 200.697 985.632 199.877ZM990.222 203.792C990.222 202.552 990.092 201.687 989.832 201.197C989.572 200.697 989.132 200.447 988.512 200.447C987.902 200.447 987.462 200.697 987.192 201.197C986.932 201.697 986.802 202.562 986.802 203.792C986.802 205.022 986.937 205.882 987.207 206.372C987.477 206.862 987.917 207.107 988.527 207.107C989.137 207.107 989.572 206.862 989.832 206.372C990.092 205.882 990.222 205.022 990.222 203.792ZM994.025 199.877C994.675 199.057 995.635 198.647 996.905 198.647C998.175 198.647 999.13 199.057 999.77 199.877C1000.42 200.697 1000.75 202.017 1000.75 203.837C1000.75 205.647 1000.43 206.947 999.785 207.737C999.145 208.517 998.185 208.907 996.905 208.907C995.625 208.907 994.665 208.517 994.025 207.737C993.385 206.947 993.065 205.647 993.065 203.837C993.065 202.017 993.385 200.697 994.025 199.877ZM998.615 203.792C998.615 202.552 998.485 201.687 998.225 201.197C997.965 200.697 997.525 200.447 996.905 200.447C996.295 200.447 995.855 200.697 995.585 201.197C995.325 201.697 995.195 202.562 995.195 203.792C995.195 205.022 995.33 205.882 995.6 206.372C995.87 206.862 996.31 207.107 996.92 207.107C997.53 207.107 997.965 206.862 998.225 206.372C998.485 205.882 998.615 205.022 998.615 203.792ZM1002.42 199.877C1003.07 199.057 1004.03 198.647 1005.3 198.647C1006.57 198.647 1007.52 199.057 1008.16 199.877C1008.81 200.697 1009.14 202.017 1009.14 203.837C1009.14 205.647 1008.82 206.947 1008.18 207.737C1007.54 208.517 1006.58 208.907 1005.3 208.907C1004.02 208.907 1003.06 208.517 1002.42 207.737C1001.78 206.947 1001.46 205.647 1001.46 203.837C1001.46 202.017 1001.78 200.697 1002.42 199.877ZM1007.01 203.792C1007.01 202.552 1006.88 201.687 1006.62 201.197C1006.36 200.697 1005.92 200.447 1005.3 200.447C1004.69 200.447 1004.25 200.697 1003.98 201.197C1003.72 201.697 1003.59 202.562 1003.59 203.792C1003.59 205.022 1003.72 205.882 1003.99 206.372C1004.26 206.862 1004.7 207.107 1005.31 207.107C1005.92 207.107 1006.36 206.862 1006.62 206.372C1006.88 205.882 1007.01 205.022 1007.01 203.792ZM1010.81 199.877C1011.46 199.057 1012.42 198.647 1013.69 198.647C1014.96 198.647 1015.92 199.057 1016.56 199.877C1017.21 200.697 1017.53 202.017 1017.53 203.837C1017.53 205.647 1017.21 206.947 1016.57 207.737C1015.93 208.517 1014.97 208.907 1013.69 208.907C1012.41 208.907 1011.45 208.517 1010.81 207.737C1010.17 206.947 1009.85 205.647 1009.85 203.837C1009.85 202.017 1010.17 200.697 1010.81 199.877ZM1015.4 203.792C1015.4 202.552 1015.27 201.687 1015.01 201.197C1014.75 200.697 1014.31 200.447 1013.69 200.447C1013.08 200.447 1012.64 200.697 1012.37 201.197C1012.11 201.697 1011.98 202.562 1011.98 203.792C1011.98 205.022 1012.12 205.882 1012.39 206.372C1012.66 206.862 1013.1 207.107 1013.71 207.107C1014.32 207.107 1014.75 206.862 1015.01 206.372C1015.27 205.882 1015.4 205.022 1015.4 203.792ZM1019.21 199.877C1019.86 199.057 1020.82 198.647 1022.09 198.647C1023.36 198.647 1024.31 199.057 1024.95 199.877C1025.6 200.697 1025.93 202.017 1025.93 203.837C1025.93 205.647 1025.61 206.947 1024.97 207.737C1024.33 208.517 1023.37 208.907 1022.09 208.907C1020.81 208.907 1019.85 208.517 1019.21 207.737C1018.57 206.947 1018.25 205.647 1018.25 203.837C1018.25 202.017 1018.57 200.697 1019.21 199.877ZM1023.8 203.792C1023.8 202.552 1023.67 201.687 1023.41 201.197C1023.15 200.697 1022.71 200.447 1022.09 200.447C1021.48 200.447 1021.04 200.697 1020.77 201.197C1020.51 201.697 1020.38 202.562 1020.38 203.792C1020.38 205.022 1020.51 205.882 1020.78 206.372C1021.05 206.862 1021.49 207.107 1022.1 207.107C1022.71 207.107 1023.15 206.862 1023.41 206.372C1023.67 205.882 1023.8 205.022 1023.8 203.792ZM1027.6 199.877C1028.25 199.057 1029.21 198.647 1030.48 198.647C1031.75 198.647 1032.7 199.057 1033.34 199.877C1033.99 200.697 1034.32 202.017 1034.32 203.837C1034.32 205.647 1034 206.947 1033.36 207.737C1032.72 208.517 1031.76 208.907 1030.48 208.907C1029.2 208.907 1028.24 208.517 1027.6 207.737C1026.96 206.947 1026.64 205.647 1026.64 203.837C1026.64 202.017 1026.96 200.697 1027.6 199.877ZM1032.19 203.792C1032.19 202.552 1032.06 201.687 1031.8 201.197C1031.54 200.697 1031.1 200.447 1030.48 200.447C1029.87 200.447 1029.43 200.697 1029.16 201.197C1028.9 201.697 1028.77 202.562 1028.77 203.792C1028.77 205.022 1028.9 205.882 1029.17 206.372C1029.44 206.862 1029.88 207.107 1030.49 207.107C1031.1 207.107 1031.54 206.862 1031.8 206.372C1032.06 205.882 1032.19 205.022 1032.19 203.792ZM1035.99 199.877C1036.64 199.057 1037.6 198.647 1038.87 198.647C1040.14 198.647 1041.1 199.057 1041.74 199.877C1042.39 200.697 1042.71 202.017 1042.71 203.837C1042.71 205.647 1042.39 206.947 1041.75 207.737C1041.11 208.517 1040.15 208.907 1038.87 208.907C1037.59 208.907 1036.63 208.517 1035.99 207.737C1035.35 206.947 1035.03 205.647 1035.03 203.837C1035.03 202.017 1035.35 200.697 1035.99 199.877ZM1040.58 203.792C1040.58 202.552 1040.45 201.687 1040.19 201.197C1039.93 200.697 1039.49 200.447 1038.87 200.447C1038.26 200.447 1037.82 200.697 1037.55 201.197C1037.29 201.697 1037.16 202.562 1037.16 203.792C1037.16 205.022 1037.3 205.882 1037.57 206.372C1037.84 206.862 1038.28 207.107 1038.89 207.107C1039.5 207.107 1039.93 206.862 1040.19 206.372C1040.45 205.882 1040.58 205.022 1040.58 203.792ZM1044.39 199.877C1045.04 199.057 1046 198.647 1047.27 198.647C1048.54 198.647 1049.49 199.057 1050.13 199.877C1050.78 200.697 1051.11 202.017 1051.11 203.837C1051.11 205.647 1050.79 206.947 1050.15 207.737C1049.51 208.517 1048.55 208.907 1047.27 208.907C1045.99 208.907 1045.03 208.517 1044.39 207.737C1043.75 206.947 1043.43 205.647 1043.43 203.837C1043.43 202.017 1043.75 200.697 1044.39 199.877ZM1048.98 203.792C1048.98 202.552 1048.85 201.687 1048.59 201.197C1048.33 200.697 1047.89 200.447 1047.27 200.447C1046.66 200.447 1046.22 200.697 1045.95 201.197C1045.69 201.697 1045.56 202.562 1045.56 203.792C1045.56 205.022 1045.69 205.882 1045.96 206.372C1046.23 206.862 1046.67 207.107 1047.28 207.107C1047.89 207.107 1048.33 206.862 1048.59 206.372C1048.85 205.882 1048.98 205.022 1048.98 203.792ZM1052.78 199.877C1053.43 199.057 1054.39 198.647 1055.66 198.647C1056.93 198.647 1057.88 199.057 1058.52 199.877C1059.17 200.697 1059.5 202.017 1059.5 203.837C1059.5 205.647 1059.18 206.947 1058.54 207.737C1057.9 208.517 1056.94 208.907 1055.66 208.907C1054.38 208.907 1053.42 208.517 1052.78 207.737C1052.14 206.947 1051.82 205.647 1051.82 203.837C1051.82 202.017 1052.14 200.697 1052.78 199.877ZM1057.37 203.792C1057.37 202.552 1057.24 201.687 1056.98 201.197C1056.72 200.697 1056.28 200.447 1055.66 200.447C1055.05 200.447 1054.61 200.697 1054.34 201.197C1054.08 201.697 1053.95 202.562 1053.95 203.792C1053.95 205.022 1054.08 205.882 1054.35 206.372C1054.62 206.862 1055.06 207.107 1055.67 207.107C1056.28 207.107 1056.72 206.862 1056.98 206.372C1057.24 205.882 1057.37 205.022 1057.37 203.792ZM1061.17 199.877C1061.82 199.057 1062.78 198.647 1064.05 198.647C1065.32 198.647 1066.28 199.057 1066.92 199.877C1067.57 200.697 1067.89 202.017 1067.89 203.837C1067.89 205.647 1067.57 206.947 1066.93 207.737C1066.29 208.517 1065.33 208.907 1064.05 208.907C1062.77 208.907 1061.81 208.517 1061.17 207.737C1060.53 206.947 1060.21 205.647 1060.21 203.837C1060.21 202.017 1060.53 200.697 1061.17 199.877ZM1065.76 203.792C1065.76 202.552 1065.63 201.687 1065.37 201.197C1065.11 200.697 1064.67 200.447 1064.05 200.447C1063.44 200.447 1063 200.697 1062.73 201.197C1062.47 201.697 1062.34 202.562 1062.34 203.792C1062.34 205.022 1062.48 205.882 1062.75 206.372C1063.02 206.862 1063.46 207.107 1064.07 207.107C1064.68 207.107 1065.11 206.862 1065.37 206.372C1065.63 205.882 1065.76 205.022 1065.76 203.792ZM1069.57 199.877C1070.22 199.057 1071.18 198.647 1072.45 198.647C1073.72 198.647 1074.67 199.057 1075.31 199.877C1075.96 200.697 1076.29 202.017 1076.29 203.837C1076.29 205.647 1075.97 206.947 1075.33 207.737C1074.69 208.517 1073.73 208.907 1072.45 208.907C1071.17 208.907 1070.21 208.517 1069.57 207.737C1068.93 206.947 1068.61 205.647 1068.61 203.837C1068.61 202.017 1068.93 200.697 1069.57 199.877ZM1074.16 203.792C1074.16 202.552 1074.03 201.687 1073.77 201.197C1073.51 200.697 1073.07 200.447 1072.45 200.447C1071.84 200.447 1071.4 200.697 1071.13 201.197C1070.87 201.697 1070.74 202.562 1070.74 203.792C1070.74 205.022 1070.87 205.882 1071.14 206.372C1071.41 206.862 1071.85 207.107 1072.46 207.107C1073.07 207.107 1073.51 206.862 1073.77 206.372C1074.03 205.882 1074.16 205.022 1074.16 203.792ZM1081.89 202.127H1080.12L1080.06 198.527H1082L1081.89 202.127ZM1079.31 202.127H1077.54L1077.47 198.527H1079.4L1079.31 202.127ZM1081.23 210.572L1081.98 206.672H1084.2L1082.85 210.572H1081.23ZM1088.25 202.127H1086.48L1086.42 198.527H1088.35L1088.25 202.127ZM1085.67 202.127H1083.9L1083.82 198.527H1085.76L1085.67 202.127ZM1090.19 208.727V198.227H1092.2V208.727H1090.19ZM1094.14 208.727V201.227H1096.15V208.727H1094.14ZM1094.14 200.267V198.227H1096.15V200.267H1094.14ZM1100.02 208.727H1098.01V201.227H1100V201.647C1100.69 201.247 1101.28 201.047 1101.77 201.047C1102.58 201.047 1103.21 201.282 1103.65 201.752C1104.57 201.282 1105.41 201.047 1106.17 201.047C1107.16 201.047 1107.84 201.337 1108.22 201.917C1108.61 202.487 1108.81 203.402 1108.81 204.662V208.727H1106.8V204.722C1106.8 204.082 1106.73 203.612 1106.59 203.312C1106.45 203.002 1106.17 202.847 1105.75 202.847C1105.43 202.847 1105.04 202.917 1104.58 203.057L1104.35 203.132C1104.39 203.882 1104.41 204.452 1104.41 204.842V208.727H1102.4V204.872C1102.4 204.132 1102.34 203.612 1102.21 203.312C1102.08 203.002 1101.79 202.847 1101.35 202.847C1100.96 202.847 1100.58 202.917 1100.2 203.057L1100.02 203.117V208.727ZM1114.76 202.127H1112.99L1112.93 198.527H1114.87L1114.76 202.127ZM1112.18 202.127H1110.41L1110.34 198.527H1112.27L1112.18 202.127ZM1116.52 204.392V201.902H1118.68V204.392H1116.52ZM1116.52 208.727V206.237H1118.68V208.727H1116.52ZM1124.77 202.127H1123L1122.94 198.527H1124.87L1124.77 202.127ZM1122.19 202.127H1120.42L1120.34 198.527H1122.28L1122.19 202.127ZM1131.95 198.827V208.727H1129.88V201.167L1127.74 202.547L1126.79 201.002L1130.06 198.827H1131.95ZM1135.4 199.877C1136.05 199.057 1137.01 198.647 1138.28 198.647C1139.55 198.647 1140.5 199.057 1141.14 199.877C1141.79 200.697 1142.12 202.017 1142.12 203.837C1142.12 205.647 1141.8 206.947 1141.16 207.737C1140.52 208.517 1139.56 208.907 1138.28 208.907C1137 208.907 1136.04 208.517 1135.4 207.737C1134.76 206.947 1134.44 205.647 1134.44 203.837C1134.44 202.017 1134.76 200.697 1135.4 199.877ZM1139.99 203.792C1139.99 202.552 1139.86 201.687 1139.6 201.197C1139.34 200.697 1138.9 200.447 1138.28 200.447C1137.67 200.447 1137.23 200.697 1136.96 201.197C1136.7 201.697 1136.57 202.562 1136.57 203.792C1136.57 205.022 1136.7 205.882 1136.97 206.372C1137.24 206.862 1137.68 207.107 1138.29 207.107C1138.9 207.107 1139.34 206.862 1139.6 206.372C1139.86 205.882 1139.99 205.022 1139.99 203.792ZM1143.79 199.877C1144.44 199.057 1145.4 198.647 1146.67 198.647C1147.94 198.647 1148.9 199.057 1149.54 199.877C1150.19 200.697 1150.51 202.017 1150.51 203.837C1150.51 205.647 1150.19 206.947 1149.55 207.737C1148.91 208.517 1147.95 208.907 1146.67 208.907C1145.39 208.907 1144.43 208.517 1143.79 207.737C1143.15 206.947 1142.83 205.647 1142.83 203.837C1142.83 202.017 1143.15 200.697 1143.79 199.877ZM1148.38 203.792C1148.38 202.552 1148.25 201.687 1147.99 201.197C1147.73 200.697 1147.29 200.447 1146.67 200.447C1146.06 200.447 1145.62 200.697 1145.35 201.197C1145.09 201.697 1144.96 202.562 1144.96 203.792C1144.96 205.022 1145.1 205.882 1145.37 206.372C1145.64 206.862 1146.08 207.107 1146.69 207.107C1147.3 207.107 1147.73 206.862 1147.99 206.372C1148.25 205.882 1148.38 205.022 1148.38 203.792ZM1152.18 199.877C1152.83 199.057 1153.79 198.647 1155.06 198.647C1156.33 198.647 1157.29 199.057 1157.93 199.877C1158.58 200.697 1158.9 202.017 1158.9 203.837C1158.9 205.647 1158.58 206.947 1157.94 207.737C1157.3 208.517 1156.34 208.907 1155.06 208.907C1153.78 208.907 1152.82 208.517 1152.18 207.737C1151.54 206.947 1151.22 205.647 1151.22 203.837C1151.22 202.017 1151.54 200.697 1152.18 199.877ZM1156.77 203.792C1156.77 202.552 1156.64 201.687 1156.38 201.197C1156.12 200.697 1155.68 200.447 1155.06 200.447C1154.45 200.447 1154.01 200.697 1153.74 201.197C1153.48 201.697 1153.35 202.562 1153.35 203.792C1153.35 205.022 1153.49 205.882 1153.76 206.372C1154.03 206.862 1154.47 207.107 1155.08 207.107C1155.69 207.107 1156.12 206.862 1156.38 206.372C1156.64 205.882 1156.77 205.022 1156.77 203.792ZM1160.58 199.877C1161.23 199.057 1162.19 198.647 1163.46 198.647C1164.73 198.647 1165.68 199.057 1166.32 199.877C1166.97 200.697 1167.3 202.017 1167.3 203.837C1167.3 205.647 1166.98 206.947 1166.34 207.737C1165.7 208.517 1164.74 208.907 1163.46 208.907C1162.18 208.907 1161.22 208.517 1160.58 207.737C1159.94 206.947 1159.62 205.647 1159.62 203.837C1159.62 202.017 1159.94 200.697 1160.58 199.877ZM1165.17 203.792C1165.17 202.552 1165.04 201.687 1164.78 201.197C1164.52 200.697 1164.08 200.447 1163.46 200.447C1162.85 200.447 1162.41 200.697 1162.14 201.197C1161.88 201.697 1161.75 202.562 1161.75 203.792C1161.75 205.022 1161.88 205.882 1162.15 206.372C1162.42 206.862 1162.86 207.107 1163.47 207.107C1164.08 207.107 1164.52 206.862 1164.78 206.372C1165.04 205.882 1165.17 205.022 1165.17 203.792ZM1168.97 199.877C1169.62 199.057 1170.58 198.647 1171.85 198.647C1173.12 198.647 1174.08 199.057 1174.72 199.877C1175.37 200.697 1175.69 202.017 1175.69 203.837C1175.69 205.647 1175.37 206.947 1174.73 207.737C1174.09 208.517 1173.13 208.907 1171.85 208.907C1170.57 208.907 1169.61 208.517 1168.97 207.737C1168.33 206.947 1168.01 205.647 1168.01 203.837C1168.01 202.017 1168.33 200.697 1168.97 199.877ZM1173.56 203.792C1173.56 202.552 1173.43 201.687 1173.17 201.197C1172.91 200.697 1172.47 200.447 1171.85 200.447C1171.24 200.447 1170.8 200.697 1170.53 201.197C1170.27 201.697 1170.14 202.562 1170.14 203.792C1170.14 205.022 1170.28 205.882 1170.55 206.372C1170.82 206.862 1171.26 207.107 1171.87 207.107C1172.48 207.107 1172.91 206.862 1173.17 206.372C1173.43 205.882 1173.56 205.022 1173.56 203.792ZM1177.36 199.877C1178.01 199.057 1178.97 198.647 1180.24 198.647C1181.51 198.647 1182.47 199.057 1183.11 199.877C1183.76 200.697 1184.08 202.017 1184.08 203.837C1184.08 205.647 1183.76 206.947 1183.12 207.737C1182.48 208.517 1181.52 208.907 1180.24 208.907C1178.96 208.907 1178 208.517 1177.36 207.737C1176.72 206.947 1176.4 205.647 1176.4 203.837C1176.4 202.017 1176.72 200.697 1177.36 199.877ZM1181.95 203.792C1181.95 202.552 1181.82 201.687 1181.56 201.197C1181.3 200.697 1180.86 200.447 1180.24 200.447C1179.63 200.447 1179.19 200.697 1178.92 201.197C1178.66 201.697 1178.53 202.562 1178.53 203.792C1178.53 205.022 1178.67 205.882 1178.94 206.372C1179.21 206.862 1179.65 207.107 1180.26 207.107C1180.87 207.107 1181.3 206.862 1181.56 206.372C1181.82 205.882 1181.95 205.022 1181.95 203.792ZM1185.76 199.877C1186.41 199.057 1187.37 198.647 1188.64 198.647C1189.91 198.647 1190.86 199.057 1191.5 199.877C1192.15 200.697 1192.48 202.017 1192.48 203.837C1192.48 205.647 1192.16 206.947 1191.52 207.737C1190.88 208.517 1189.92 208.907 1188.64 208.907C1187.36 208.907 1186.4 208.517 1185.76 207.737C1185.12 206.947 1184.8 205.647 1184.8 203.837C1184.8 202.017 1185.12 200.697 1185.76 199.877ZM1190.35 203.792C1190.35 202.552 1190.22 201.687 1189.96 201.197C1189.7 200.697 1189.26 200.447 1188.64 200.447C1188.03 200.447 1187.59 200.697 1187.32 201.197C1187.06 201.697 1186.93 202.562 1186.93 203.792C1186.93 205.022 1187.06 205.882 1187.33 206.372C1187.6 206.862 1188.04 207.107 1188.65 207.107C1189.26 207.107 1189.7 206.862 1189.96 206.372C1190.22 205.882 1190.35 205.022 1190.35 203.792ZM1194.15 199.877C1194.8 199.057 1195.76 198.647 1197.03 198.647C1198.3 198.647 1199.26 199.057 1199.9 199.877C1200.55 200.697 1200.87 202.017 1200.87 203.837C1200.87 205.647 1200.55 206.947 1199.91 207.737C1199.27 208.517 1198.31 208.907 1197.03 208.907C1195.75 208.907 1194.79 208.517 1194.15 207.737C1193.51 206.947 1193.19 205.647 1193.19 203.837C1193.19 202.017 1193.51 200.697 1194.15 199.877ZM1198.74 203.792C1198.74 202.552 1198.61 201.687 1198.35 201.197C1198.09 200.697 1197.65 200.447 1197.03 200.447C1196.42 200.447 1195.98 200.697 1195.71 201.197C1195.45 201.697 1195.32 202.562 1195.32 203.792C1195.32 205.022 1195.46 205.882 1195.73 206.372C1196 206.862 1196.44 207.107 1197.05 207.107C1197.66 207.107 1198.09 206.862 1198.35 206.372C1198.61 205.882 1198.74 205.022 1198.74 203.792ZM1206.48 202.127H1204.71L1204.65 198.527H1206.58L1206.48 202.127ZM1203.9 202.127H1202.13L1202.05 198.527H1203.99L1203.9 202.127ZM1209.03 207.902L1208.92 206.147C1208.92 205.507 1209.03 205.037 1209.24 204.737C1209.46 204.427 1209.92 204.187 1210.62 204.017C1209.91 203.847 1209.45 203.627 1209.24 203.357C1209.04 203.087 1208.94 202.637 1208.94 202.007L1209.04 200.087C1209.04 199.757 1208.96 199.507 1208.8 199.337C1208.65 199.167 1208.36 199.062 1207.93 199.022V197.312C1209.06 197.352 1209.85 197.562 1210.3 197.942C1210.76 198.322 1210.99 198.987 1210.99 199.937L1210.89 201.842C1210.89 202.522 1211.45 202.992 1212.57 203.252V204.812C1211.45 205.102 1210.89 205.612 1210.89 206.342L1210.99 208.157C1210.99 209.057 1210.76 209.702 1210.3 210.092C1209.85 210.482 1209.07 210.697 1207.96 210.737V209.027C1208.38 208.997 1208.66 208.887 1208.8 208.697C1208.95 208.507 1209.03 208.242 1209.03 207.902Z" fill="white"/>
<path d="M643.765 134.86L643.87 136.78C643.87 137.41 643.765 137.86 643.555 138.13C643.355 138.4 642.9 138.62 642.19 138.79C642.89 138.96 643.345 139.2 643.555 139.51C643.775 139.81 643.885 140.28 643.885 140.92L643.78 142.675C643.78 143.015 643.85 143.28 643.99 143.47C644.14 143.66 644.425 143.77 644.845 143.8V145.51C643.735 145.47 642.95 145.255 642.49 144.865C642.04 144.475 641.815 143.83 641.815 142.93L641.92 141.115C641.92 140.385 641.36 139.875 640.24 139.585V138.025C641.36 137.765 641.92 137.295 641.92 136.615L641.815 134.71C641.815 133.76 642.04 133.095 642.49 132.715C642.95 132.335 643.745 132.125 644.875 132.085V133.795C644.445 133.835 644.15 133.94 643.99 134.11C643.84 134.28 643.765 134.53 643.765 134.86ZM650.67 136.9H648.9L648.84 133.3H650.775L650.67 136.9ZM648.09 136.9H646.32L646.245 133.3H648.18L648.09 136.9ZM652.517 146.65V136H654.512V136.405C655.162 136.015 655.732 135.82 656.222 135.82C657.232 135.82 657.977 136.125 658.457 136.735C658.937 137.335 659.177 138.36 659.177 139.81C659.177 141.26 658.912 142.27 658.382 142.84C657.852 143.4 656.982 143.68 655.772 143.68C655.442 143.68 655.087 143.65 654.707 143.59L654.527 143.56V146.65H652.517ZM655.832 137.62C655.462 137.62 655.087 137.695 654.707 137.845L654.527 137.92V141.85C654.977 141.91 655.342 141.94 655.622 141.94C656.202 141.94 656.597 141.77 656.807 141.43C657.027 141.09 657.137 140.51 657.137 139.69C657.137 138.31 656.702 137.62 655.832 137.62ZM664.82 136.9H663.05L662.99 133.3H664.925L664.82 136.9ZM662.24 136.9H660.47L660.395 133.3H662.33L662.24 136.9ZM666.577 139.165V136.675H668.737V139.165H666.577ZM666.577 143.5V141.01H668.737V143.5H666.577ZM674.825 136.9H673.055L672.995 133.3H674.93L674.825 136.9ZM672.245 136.9H670.475L670.4 133.3H672.335L672.245 136.9ZM680.302 135.82C681.352 135.82 682.117 136.11 682.597 136.69C683.087 137.26 683.332 138.285 683.332 139.765C683.332 141.245 683.052 142.27 682.492 142.84C681.932 143.4 680.967 143.68 679.597 143.68C679.167 143.68 678.382 143.63 677.242 143.53L676.672 143.47V133H678.682V136.225C679.322 135.955 679.862 135.82 680.302 135.82ZM679.597 141.88C680.267 141.88 680.717 141.72 680.947 141.4C681.177 141.07 681.292 140.485 681.292 139.645C681.292 138.295 680.872 137.62 680.032 137.62C679.632 137.62 679.252 137.67 678.892 137.77L678.682 137.815V141.82C679.142 141.86 679.447 141.88 679.597 141.88ZM684.831 143.5V136H686.826V136.795C687.666 136.295 688.466 135.97 689.226 135.82V137.845C688.416 138.015 687.721 138.19 687.141 138.37L686.841 138.475V143.5H684.831ZM693.217 135.82C693.737 135.82 694.402 135.9 695.212 136.06L695.617 136.15L695.557 137.74C694.767 137.66 694.182 137.62 693.802 137.62C693.112 137.62 692.652 137.77 692.422 138.07C692.202 138.36 692.092 138.915 692.092 139.735C692.092 140.555 692.202 141.12 692.422 141.43C692.652 141.73 693.117 141.88 693.817 141.88L695.557 141.76L695.617 143.365C694.547 143.575 693.732 143.68 693.172 143.68C692.062 143.68 691.262 143.37 690.772 142.75C690.292 142.12 690.052 141.115 690.052 139.735C690.052 138.355 690.302 137.36 690.802 136.75C691.302 136.13 692.107 135.82 693.217 135.82ZM696.768 140.425V138.595H701.208V140.425H696.768ZM709.446 143.5H703.026V141.745L705.141 139.6C705.891 138.83 706.411 138.24 706.701 137.83C707.001 137.42 707.151 136.985 707.151 136.525C707.151 136.055 707.026 135.725 706.776 135.535C706.536 135.345 706.191 135.25 705.741 135.25C705.071 135.25 704.341 135.31 703.551 135.43L703.191 135.475L703.086 133.87C704.066 133.57 705.081 133.42 706.131 133.42C708.231 133.42 709.281 134.365 709.281 136.255C709.281 136.995 709.121 137.635 708.801 138.175C708.481 138.715 707.901 139.37 707.061 140.14L705.336 141.7H709.446V143.5ZM711.764 134.65C712.414 133.83 713.374 133.42 714.644 133.42C715.914 133.42 716.869 133.83 717.509 134.65C718.159 135.47 718.484 136.79 718.484 138.61C718.484 140.42 718.164 141.72 717.524 142.51C716.884 143.29 715.924 143.68 714.644 143.68C713.364 143.68 712.404 143.29 711.764 142.51C711.124 141.72 710.804 140.42 710.804 138.61C710.804 136.79 711.124 135.47 711.764 134.65ZM716.354 138.565C716.354 137.325 716.224 136.46 715.964 135.97C715.704 135.47 715.264 135.22 714.644 135.22C714.034 135.22 713.594 135.47 713.324 135.97C713.064 136.47 712.934 137.335 712.934 138.565C712.934 139.795 713.069 140.655 713.339 141.145C713.609 141.635 714.049 141.88 714.659 141.88C715.269 141.88 715.704 141.635 715.964 141.145C716.224 140.655 716.354 139.795 716.354 138.565ZM724.088 136.9H722.318L722.258 133.3H724.193L724.088 136.9ZM721.508 136.9H719.738L719.663 133.3H721.598L721.508 136.9ZM723.43 145.345L724.18 141.445H726.4L725.05 145.345H723.43ZM730.445 136.9H728.675L728.615 133.3H730.55L730.445 136.9ZM727.865 136.9H726.095L726.02 133.3H727.955L727.865 136.9ZM732.536 136.855C733.066 136.165 733.951 135.82 735.191 135.82C736.431 135.82 737.316 136.165 737.846 136.855C738.376 137.535 738.641 138.495 738.641 139.735C738.641 142.365 737.491 143.68 735.191 143.68C732.891 143.68 731.741 142.365 731.741 139.735C731.741 138.495 732.006 137.535 732.536 136.855ZM734.081 141.43C734.291 141.79 734.661 141.97 735.191 141.97C735.721 141.97 736.086 141.79 736.286 141.43C736.496 141.07 736.601 140.505 736.601 139.735C736.601 138.965 736.496 138.405 736.286 138.055C736.086 137.705 735.721 137.53 735.191 137.53C734.661 137.53 734.291 137.705 734.081 138.055C733.881 138.405 733.781 138.965 733.781 139.735C733.781 140.505 733.881 141.07 734.081 141.43ZM740.115 146.65V136H742.11V136.405C742.76 136.015 743.33 135.82 743.82 135.82C744.83 135.82 745.575 136.125 746.055 136.735C746.535 137.335 746.775 138.36 746.775 139.81C746.775 141.26 746.51 142.27 745.98 142.84C745.45 143.4 744.58 143.68 743.37 143.68C743.04 143.68 742.685 143.65 742.305 143.59L742.125 143.56V146.65H740.115ZM743.43 137.62C743.06 137.62 742.685 137.695 742.305 137.845L742.125 137.92V141.85C742.575 141.91 742.94 141.94 743.22 141.94C743.8 141.94 744.195 141.77 744.405 141.43C744.625 141.09 744.735 140.51 744.735 139.69C744.735 138.31 744.3 137.62 743.43 137.62ZM752.418 136.9H750.648L750.588 133.3H752.523L752.418 136.9ZM749.838 136.9H748.068L747.993 133.3H749.928L749.838 136.9ZM754.175 139.165V136.675H756.335V139.165H754.175ZM754.175 143.5V141.01H756.335V143.5H754.175ZM762.423 136.9H760.653L760.593 133.3H762.528L762.423 136.9ZM759.843 136.9H758.073L757.998 133.3H759.933L759.843 136.9ZM770.454 133V143.5H768.459V143.185C767.759 143.515 767.154 143.68 766.644 143.68C765.554 143.68 764.794 143.365 764.364 142.735C763.934 142.105 763.719 141.11 763.719 139.75C763.719 138.38 763.974 137.385 764.484 136.765C765.004 136.135 765.784 135.82 766.824 135.82C767.144 135.82 767.589 135.87 768.159 135.97L768.444 136.03V133H770.454ZM768.234 141.7L768.444 141.655V137.71C767.894 137.61 767.404 137.56 766.974 137.56C766.164 137.56 765.759 138.28 765.759 139.72C765.759 140.5 765.849 141.055 766.029 141.385C766.209 141.715 766.504 141.88 766.914 141.88C767.334 141.88 767.774 141.82 768.234 141.7ZM773.962 140.605C773.972 141.065 774.092 141.4 774.322 141.61C774.562 141.81 774.902 141.91 775.342 141.91C776.272 141.91 777.102 141.88 777.832 141.82L778.252 141.775L778.282 143.26C777.132 143.54 776.092 143.68 775.162 143.68C774.032 143.68 773.212 143.38 772.702 142.78C772.192 142.18 771.937 141.205 771.937 139.855C771.937 137.165 773.042 135.82 775.252 135.82C777.432 135.82 778.522 136.95 778.522 139.21L778.372 140.605H773.962ZM776.542 139.075C776.542 138.475 776.447 138.06 776.257 137.83C776.067 137.59 775.732 137.47 775.252 137.47C774.782 137.47 774.447 137.595 774.247 137.845C774.057 138.085 773.957 138.495 773.947 139.075H776.542ZM779.958 146.65V136H781.953V136.405C782.603 136.015 783.173 135.82 783.663 135.82C784.673 135.82 785.418 136.125 785.898 136.735C786.378 137.335 786.618 138.36 786.618 139.81C786.618 141.26 786.353 142.27 785.823 142.84C785.293 143.4 784.423 143.68 783.213 143.68C782.883 143.68 782.528 143.65 782.148 143.59L781.968 143.56V146.65H779.958ZM783.273 137.62C782.903 137.62 782.528 137.695 782.148 137.845L781.968 137.92V141.85C782.418 141.91 782.783 141.94 783.063 141.94C783.643 141.94 784.038 141.77 784.248 141.43C784.468 141.09 784.578 140.51 784.578 139.69C784.578 138.31 784.143 137.62 783.273 137.62ZM788.208 143.5V133H790.218V143.5H788.208ZM792.565 136.855C793.095 136.165 793.98 135.82 795.22 135.82C796.46 135.82 797.345 136.165 797.875 136.855C798.405 137.535 798.67 138.495 798.67 139.735C798.67 142.365 797.52 143.68 795.22 143.68C792.92 143.68 791.77 142.365 791.77 139.735C791.77 138.495 792.035 137.535 792.565 136.855ZM794.11 141.43C794.32 141.79 794.69 141.97 795.22 141.97C795.75 141.97 796.115 141.79 796.315 141.43C796.525 141.07 796.63 140.505 796.63 139.735C796.63 138.965 796.525 138.405 796.315 138.055C796.115 137.705 795.75 137.53 795.22 137.53C794.69 137.53 794.32 137.705 794.11 138.055C793.91 138.405 793.81 138.965 793.81 139.735C793.81 140.505 793.91 141.07 794.11 141.43ZM799.322 136H801.302L802.667 141.79H803.012L804.377 136H806.357L803.717 146.65H801.752L802.577 143.5H801.167L799.322 136ZM811.832 136.9H810.062L810.002 133.3H811.937L811.832 136.9ZM809.252 136.9H807.482L807.407 133.3H809.342L809.252 136.9ZM811.174 145.345L811.924 141.445H814.144L812.794 145.345H811.174ZM818.189 136.9H816.419L816.359 133.3H818.294L818.189 136.9ZM815.609 136.9H813.839L813.764 133.3H815.699L815.609 136.9ZM824.191 137.71H822.346V140.785C822.346 141.085 822.351 141.3 822.361 141.43C822.381 141.55 822.436 141.655 822.526 141.745C822.626 141.835 822.776 141.88 822.976 141.88L824.116 141.85L824.206 143.455C823.536 143.605 823.026 143.68 822.676 143.68C821.776 143.68 821.161 143.48 820.831 143.08C820.501 142.67 820.336 141.92 820.336 140.83V137.71H819.451V136H820.336V133.915H822.346V136H824.191V137.71ZM825.5 143.5V136H827.51V143.5H825.5ZM825.5 135.04V133H827.51V135.04H825.5ZM832.173 135.82C832.693 135.82 833.358 135.9 834.168 136.06L834.573 136.15L834.513 137.74C833.723 137.66 833.138 137.62 832.758 137.62C832.068 137.62 831.608 137.77 831.378 138.07C831.158 138.36 831.048 138.915 831.048 139.735C831.048 140.555 831.158 141.12 831.378 141.43C831.608 141.73 832.073 141.88 832.773 141.88L834.513 141.76L834.573 143.365C833.503 143.575 832.688 143.68 832.128 143.68C831.018 143.68 830.218 143.37 829.728 142.75C829.248 142.12 829.008 141.115 829.008 139.735C829.008 138.355 829.258 137.36 829.758 136.75C830.258 136.13 831.063 135.82 832.173 135.82ZM838.072 143.5H836.062V133H838.072V138.97L838.837 138.835L840.322 136H842.572L840.622 139.555L842.677 143.5H840.412L838.897 140.575L838.072 140.71V143.5ZM848.102 136.9H846.332L846.272 133.3H848.207L848.102 136.9ZM845.522 136.9H843.752L843.677 133.3H845.612L845.522 136.9ZM849.859 139.165V136.675H852.019V139.165H849.859ZM849.859 143.5V141.01H852.019V143.5H849.859ZM858.106 136.9H856.336L856.276 133.3H858.211L858.106 136.9ZM855.526 136.9H853.756L853.681 133.3H855.616L855.526 136.9ZM859.173 143.5V142.27L862.653 132.745H865.428L868.938 142.315V143.5H859.173ZM861.783 141.595H866.313L864.708 136.555C864.658 136.385 864.588 136.17 864.498 135.91C864.418 135.65 864.333 135.385 864.243 135.115C864.163 134.845 864.098 134.61 864.048 134.41C863.998 134.61 863.928 134.86 863.838 135.16C863.748 135.45 863.663 135.73 863.583 136C863.503 136.26 863.443 136.445 863.403 136.555L861.783 141.595ZM869.702 137.8V136H875.267V137.8L872.117 141.7H875.267V143.5H869.702V141.7L872.852 137.8H869.702ZM876.828 143.5V136H878.823V136.795C879.663 136.295 880.463 135.97 881.223 135.82V137.845C880.413 138.015 879.718 138.19 879.138 138.37L878.838 138.475V143.5H876.828ZM886.729 136.9H884.959L884.899 133.3H886.834L886.729 136.9ZM884.149 136.9H882.379L882.304 133.3H884.239L884.149 136.9ZM886.071 145.345L886.821 141.445H889.041L887.691 145.345H886.071ZM893.087 136.9H891.317L891.257 133.3H893.192L893.087 136.9ZM890.507 136.9H888.737L888.662 133.3H890.597L890.507 136.9ZM896.944 143.5H894.934V136H896.929V136.42C897.619 136.02 898.209 135.82 898.699 135.82C899.509 135.82 900.134 136.055 900.574 136.525C901.494 136.055 902.334 135.82 903.094 135.82C904.084 135.82 904.769 136.11 905.149 136.69C905.539 137.26 905.734 138.175 905.734 139.435V143.5H903.724V139.495C903.724 138.855 903.654 138.385 903.514 138.085C903.374 137.775 903.094 137.62 902.674 137.62C902.354 137.62 901.964 137.69 901.504 137.83L901.279 137.905C901.319 138.655 901.339 139.225 901.339 139.615V143.5H899.329V139.645C899.329 138.905 899.264 138.385 899.134 138.085C899.004 137.775 898.719 137.62 898.279 137.62C897.889 137.62 897.504 137.69 897.124 137.83L896.944 137.89V143.5ZM913.262 138.34V141.46C913.282 141.7 913.322 141.87 913.382 141.97C913.442 142.06 913.567 142.125 913.757 142.165L913.697 143.68C913.187 143.68 912.777 143.645 912.467 143.575C912.167 143.505 911.862 143.365 911.552 143.155C910.832 143.505 910.097 143.68 909.347 143.68C907.797 143.68 907.022 142.86 907.022 141.22C907.022 140.42 907.237 139.855 907.667 139.525C908.097 139.185 908.757 138.985 909.647 138.925L911.252 138.805V138.34C911.252 138.03 911.182 137.82 911.042 137.71C910.902 137.59 910.677 137.53 910.367 137.53L907.547 137.65L907.487 136.255C908.557 135.965 909.572 135.82 910.532 135.82C911.502 135.82 912.197 136.02 912.617 136.42C913.047 136.82 913.262 137.46 913.262 138.34ZM909.887 140.32C909.327 140.37 909.047 140.67 909.047 141.22C909.047 141.77 909.292 142.045 909.782 142.045C910.162 142.045 910.577 141.985 911.027 141.865L911.252 141.805V140.2L909.887 140.32ZM914.458 136H916.603L917.803 138.325L919.018 136H921.163L919.033 139.675L921.163 143.5H919.018L917.803 141.205L916.603 143.5H914.458L916.513 139.735L914.458 136ZM926.603 136.9H924.833L924.773 133.3H926.708L926.603 136.9ZM924.023 136.9H922.253L922.178 133.3H924.113L924.023 136.9ZM928.36 139.165V136.675H930.52V139.165H928.36ZM928.36 143.5V141.01H930.52V143.5H928.36ZM936.607 136.9H934.837L934.777 133.3H936.712L936.607 136.9ZM934.027 136.9H932.257L932.182 133.3H934.117L934.027 136.9ZM938.454 133.96C939.374 133.6 940.399 133.42 941.529 133.42C942.669 133.42 943.499 133.64 944.019 134.08C944.539 134.51 944.799 135.205 944.799 136.165C944.799 137.125 944.414 137.86 943.644 138.37C944.124 138.63 944.464 138.9 944.664 139.18C944.874 139.46 944.979 139.905 944.979 140.515C944.979 141.585 944.709 142.38 944.169 142.9C943.639 143.42 942.784 143.68 941.604 143.68C940.734 143.68 939.819 143.55 938.859 143.29L938.379 143.17L938.484 141.595C939.604 141.785 940.544 141.88 941.304 141.88C942.334 141.88 942.849 141.44 942.849 140.56C942.849 140.19 942.714 139.895 942.444 139.675C942.184 139.455 941.839 139.345 941.409 139.345H939.414V137.635H941.409C941.739 137.635 942.029 137.495 942.279 137.215C942.539 136.935 942.669 136.625 942.669 136.285C942.669 135.575 942.174 135.22 941.184 135.22C940.494 135.22 939.759 135.29 938.979 135.43L938.589 135.49L938.454 133.96ZM952.188 133.6V143.5H950.118V135.94L947.973 137.32L947.028 135.775L950.298 133.6H952.188ZM960.582 133.6V143.5H958.512V135.94L956.367 137.32L955.422 135.775L958.692 133.6H960.582ZM964.025 134.65C964.675 133.83 965.635 133.42 966.905 133.42C968.175 133.42 969.13 133.83 969.77 134.65C970.42 135.47 970.745 136.79 970.745 138.61C970.745 140.42 970.425 141.72 969.785 142.51C969.145 143.29 968.185 143.68 966.905 143.68C965.625 143.68 964.665 143.29 964.025 142.51C963.385 141.72 963.065 140.42 963.065 138.61C963.065 136.79 963.385 135.47 964.025 134.65ZM968.615 138.565C968.615 137.325 968.485 136.46 968.225 135.97C967.965 135.47 967.525 135.22 966.905 135.22C966.295 135.22 965.855 135.47 965.585 135.97C965.325 136.47 965.195 137.335 965.195 138.565C965.195 139.795 965.33 140.655 965.6 141.145C965.87 141.635 966.31 141.88 966.92 141.88C967.53 141.88 967.965 141.635 968.225 141.145C968.485 140.655 968.615 139.795 968.615 138.565ZM978.494 143.5H972.074V141.745L974.189 139.6C974.939 138.83 975.459 138.24 975.749 137.83C976.049 137.42 976.199 136.985 976.199 136.525C976.199 136.055 976.074 135.725 975.824 135.535C975.584 135.345 975.239 135.25 974.789 135.25C974.119 135.25 973.389 135.31 972.599 135.43L972.239 135.475L972.134 133.87C973.114 133.57 974.129 133.42 975.179 133.42C977.279 133.42 978.329 134.365 978.329 136.255C978.329 136.995 978.169 137.635 977.849 138.175C977.529 138.715 976.949 139.37 976.109 140.14L974.384 141.7H978.494V143.5ZM980.812 134.65C981.462 133.83 982.422 133.42 983.692 133.42C984.962 133.42 985.917 133.83 986.557 134.65C987.207 135.47 987.532 136.79 987.532 138.61C987.532 140.42 987.212 141.72 986.572 142.51C985.932 143.29 984.972 143.68 983.692 143.68C982.412 143.68 981.452 143.29 980.812 142.51C980.172 141.72 979.852 140.42 979.852 138.61C979.852 136.79 980.172 135.47 980.812 134.65ZM985.402 138.565C985.402 137.325 985.272 136.46 985.012 135.97C984.752 135.47 984.312 135.22 983.692 135.22C983.082 135.22 982.642 135.47 982.372 135.97C982.112 136.47 981.982 137.335 981.982 138.565C981.982 139.795 982.117 140.655 982.387 141.145C982.657 141.635 983.097 141.88 983.707 141.88C984.317 141.88 984.752 141.635 985.012 141.145C985.272 140.655 985.402 139.795 985.402 138.565ZM989.206 134.65C989.856 133.83 990.816 133.42 992.086 133.42C993.356 133.42 994.311 133.83 994.951 134.65C995.601 135.47 995.926 136.79 995.926 138.61C995.926 140.42 995.606 141.72 994.966 142.51C994.326 143.29 993.366 143.68 992.086 143.68C990.806 143.68 989.846 143.29 989.206 142.51C988.566 141.72 988.246 140.42 988.246 138.61C988.246 136.79 988.566 135.47 989.206 134.65ZM993.796 138.565C993.796 137.325 993.666 136.46 993.406 135.97C993.146 135.47 992.706 135.22 992.086 135.22C991.476 135.22 991.036 135.47 990.766 135.97C990.506 136.47 990.376 137.335 990.376 138.565C990.376 139.795 990.511 140.655 990.781 141.145C991.051 141.635 991.491 141.88 992.101 141.88C992.711 141.88 993.146 141.635 993.406 141.145C993.666 140.655 993.796 139.795 993.796 138.565ZM997.839 134.14C998.489 133.66 999.359 133.42 1000.45 133.42C1001.54 133.42 1002.42 133.66 1003.09 134.14C1003.76 134.62 1004.09 135.285 1004.09 136.135C1004.09 136.715 1004.02 137.15 1003.88 137.44C1003.74 137.73 1003.45 138.05 1003.01 138.4C1003.45 138.77 1003.77 139.12 1003.96 139.45C1004.15 139.78 1004.24 140.235 1004.24 140.815C1004.24 141.795 1003.89 142.52 1003.19 142.99C1002.49 143.45 1001.58 143.68 1000.45 143.68C997.949 143.68 996.699 142.78 996.699 140.98C996.699 140.34 996.794 139.845 996.984 139.495C997.184 139.135 997.504 138.77 997.944 138.4C997.524 138.06 997.239 137.73 997.089 137.41C996.939 137.08 996.864 136.65 996.864 136.12C996.864 135.27 997.189 134.61 997.839 134.14ZM998.919 140.5C998.919 141.38 999.434 141.82 1000.46 141.82C1001.5 141.82 1002.02 141.38 1002.02 140.5C1002.02 139.98 1001.73 139.605 1001.14 139.375H999.819C999.219 139.605 998.919 139.98 998.919 140.5ZM1000.48 135.28C1000.03 135.28 999.684 135.38 999.444 135.58C999.204 135.78 999.084 136.085 999.084 136.495C999.084 136.905 999.329 137.28 999.819 137.62H1001.14C1001.63 137.28 1001.87 136.89 1001.87 136.45C1001.87 135.67 1001.41 135.28 1000.48 135.28ZM1009.92 136.9H1008.15L1008.09 133.3H1010.03L1009.92 136.9ZM1007.34 136.9H1005.57L1005.5 133.3H1007.43L1007.34 136.9ZM1009.26 145.345L1010.01 141.445H1012.23L1010.88 145.345H1009.26ZM1016.28 136.9H1014.51L1014.45 133.3H1016.39L1016.28 136.9ZM1013.7 136.9H1011.93L1011.86 133.3H1013.79L1013.7 136.9ZM1018.22 143.5V133H1020.23V143.5H1018.22ZM1022.17 143.5V136H1024.18V143.5H1022.17ZM1022.17 135.04V133H1024.18V135.04H1022.17ZM1028.05 143.5H1026.04V136H1028.03V136.42C1028.72 136.02 1029.31 135.82 1029.8 135.82C1030.61 135.82 1031.24 136.055 1031.68 136.525C1032.6 136.055 1033.44 135.82 1034.2 135.82C1035.19 135.82 1035.87 136.11 1036.25 136.69C1036.64 137.26 1036.84 138.175 1036.84 139.435V143.5H1034.83V139.495C1034.83 138.855 1034.76 138.385 1034.62 138.085C1034.48 137.775 1034.2 137.62 1033.78 137.62C1033.46 137.62 1033.07 137.69 1032.61 137.83L1032.38 137.905C1032.42 138.655 1032.44 139.225 1032.44 139.615V143.5H1030.43V139.645C1030.43 138.905 1030.37 138.385 1030.24 138.085C1030.11 137.775 1029.82 137.62 1029.38 137.62C1028.99 137.62 1028.61 137.69 1028.23 137.83L1028.05 137.89V143.5ZM1042.79 136.9H1041.02L1040.96 133.3H1042.9L1042.79 136.9ZM1040.21 136.9H1038.44L1038.37 133.3H1040.3L1040.21 136.9ZM1044.55 139.165V136.675H1046.71V139.165H1044.55ZM1044.55 143.5V141.01H1046.71V143.5H1044.55ZM1052.8 136.9H1051.03L1050.97 133.3H1052.9L1052.8 136.9ZM1050.22 136.9H1048.45L1048.37 133.3H1050.31L1050.22 136.9ZM1059.99 133.6V143.5H1057.92V135.94L1055.77 137.32L1054.83 135.775L1058.1 133.6H1059.99ZM1068.38 133.6V143.5H1066.31V135.94L1064.16 137.32L1063.22 135.775L1066.49 133.6H1068.38ZM1077.9 143.5H1071.48V141.745L1073.59 139.6C1074.34 138.83 1074.86 138.24 1075.15 137.83C1075.45 137.42 1075.6 136.985 1075.6 136.525C1075.6 136.055 1075.48 135.725 1075.23 135.535C1074.99 135.345 1074.64 135.25 1074.19 135.25C1073.52 135.25 1072.79 135.31 1072 135.43L1071.64 135.475L1071.54 133.87C1072.52 133.57 1073.53 133.42 1074.58 133.42C1076.68 133.42 1077.73 134.365 1077.73 136.255C1077.73 136.995 1077.57 137.635 1077.25 138.175C1076.93 138.715 1076.35 139.37 1075.51 140.14L1073.79 141.7H1077.9V143.5ZM1086.29 143.5H1079.87V141.745L1081.99 139.6C1082.74 138.83 1083.26 138.24 1083.55 137.83C1083.85 137.42 1084 136.985 1084 136.525C1084 136.055 1083.87 135.725 1083.62 135.535C1083.38 135.345 1083.04 135.25 1082.59 135.25C1081.92 135.25 1081.19 135.31 1080.4 135.43L1080.04 135.475L1079.93 133.87C1080.91 133.57 1081.93 133.42 1082.98 133.42C1085.08 133.42 1086.13 134.365 1086.13 136.255C1086.13 136.995 1085.97 137.635 1085.65 138.175C1085.33 138.715 1084.75 139.37 1083.91 140.14L1082.18 141.7H1086.29V143.5ZM1092.09 143.5V141.865H1087.89V140.29L1090.34 133.6H1092.62L1089.96 140.065H1092.09V137.29H1094.16V140.065H1095.11V141.865H1094.16V143.5H1092.09ZM1100.93 136.9H1099.16L1099.1 133.3H1101.04L1100.93 136.9ZM1098.35 136.9H1096.58L1096.51 133.3H1098.44L1098.35 136.9ZM1103.49 142.675L1103.38 140.92C1103.38 140.28 1103.49 139.81 1103.7 139.51C1103.92 139.2 1104.38 138.96 1105.08 138.79C1104.37 138.62 1103.91 138.4 1103.7 138.13C1103.5 137.86 1103.4 137.41 1103.4 136.78L1103.5 134.86C1103.5 134.53 1103.42 134.28 1103.26 134.11C1103.11 133.94 1102.82 133.835 1102.39 133.795V132.085C1103.52 132.125 1104.31 132.335 1104.76 132.715C1105.22 133.095 1105.45 133.76 1105.45 134.71L1105.35 136.615C1105.35 137.295 1105.91 137.765 1107.03 138.025V139.585C1105.91 139.875 1105.35 140.385 1105.35 141.115L1105.45 142.93C1105.45 143.83 1105.22 144.475 1104.76 144.865C1104.31 145.255 1103.53 145.47 1102.42 145.51V143.8C1102.84 143.77 1103.12 143.66 1103.26 143.47C1103.41 143.28 1103.49 143.015 1103.49 142.675Z" fill="white"/>
<path d="M643.765 167.473L643.87 169.393C643.87 170.023 643.765 170.473 643.555 170.743C643.355 171.013 642.9 171.233 642.19 171.403C642.89 171.573 643.345 171.813 643.555 172.123C643.775 172.423 643.885 172.893 643.885 173.533L643.78 175.288C643.78 175.628 643.85 175.893 643.99 176.083C644.14 176.273 644.425 176.383 644.845 176.413V178.123C643.735 178.083 642.95 177.868 642.49 177.478C642.04 177.088 641.815 176.443 641.815 175.543L641.92 173.728C641.92 172.998 641.36 172.488 640.24 172.198V170.638C641.36 170.378 641.92 169.908 641.92 169.228L641.815 167.323C641.815 166.373 642.04 165.708 642.49 165.328C642.95 164.948 643.745 164.738 644.875 164.698V166.408C644.445 166.448 644.15 166.553 643.99 166.723C643.84 166.893 643.765 167.143 643.765 167.473ZM650.67 169.513H648.9L648.84 165.913H650.775L650.67 169.513ZM648.09 169.513H646.32L646.245 165.913H648.18L648.09 169.513ZM652.517 179.263V168.613H654.512V169.018C655.162 168.628 655.732 168.433 656.222 168.433C657.232 168.433 657.977 168.738 658.457 169.348C658.937 169.948 659.177 170.973 659.177 172.423C659.177 173.873 658.912 174.883 658.382 175.453C657.852 176.013 656.982 176.293 655.772 176.293C655.442 176.293 655.087 176.263 654.707 176.203L654.527 176.173V179.263H652.517ZM655.832 170.233C655.462 170.233 655.087 170.308 654.707 170.458L654.527 170.533V174.463C654.977 174.523 655.342 174.553 655.622 174.553C656.202 174.553 656.597 174.383 656.807 174.043C657.027 173.703 657.137 173.123 657.137 172.303C657.137 170.923 656.702 170.233 655.832 170.233ZM664.82 169.513H663.05L662.99 165.913H664.925L664.82 169.513ZM662.24 169.513H660.47L660.395 165.913H662.33L662.24 169.513ZM666.577 171.778V169.288H668.737V171.778H666.577ZM666.577 176.113V173.623H668.737V176.113H666.577ZM674.825 169.513H673.055L672.995 165.913H674.93L674.825 169.513ZM672.245 169.513H670.475L670.4 165.913H672.335L672.245 169.513ZM680.302 168.433C681.352 168.433 682.117 168.723 682.597 169.303C683.087 169.873 683.332 170.898 683.332 172.378C683.332 173.858 683.052 174.883 682.492 175.453C681.932 176.013 680.967 176.293 679.597 176.293C679.167 176.293 678.382 176.243 677.242 176.143L676.672 176.083V165.613H678.682V168.838C679.322 168.568 679.862 168.433 680.302 168.433ZM679.597 174.493C680.267 174.493 680.717 174.333 680.947 174.013C681.177 173.683 681.292 173.098 681.292 172.258C681.292 170.908 680.872 170.233 680.032 170.233C679.632 170.233 679.252 170.283 678.892 170.383L678.682 170.428V174.433C679.142 174.473 679.447 174.493 679.597 174.493ZM684.831 176.113V168.613H686.826V169.408C687.666 168.908 688.466 168.583 689.226 168.433V170.458C688.416 170.628 687.721 170.803 687.141 170.983L686.841 171.088V176.113H684.831ZM693.217 168.433C693.737 168.433 694.402 168.513 695.212 168.673L695.617 168.763L695.557 170.353C694.767 170.273 694.182 170.233 693.802 170.233C693.112 170.233 692.652 170.383 692.422 170.683C692.202 170.973 692.092 171.528 692.092 172.348C692.092 173.168 692.202 173.733 692.422 174.043C692.652 174.343 693.117 174.493 693.817 174.493L695.557 174.373L695.617 175.978C694.547 176.188 693.732 176.293 693.172 176.293C692.062 176.293 691.262 175.983 690.772 175.363C690.292 174.733 690.052 173.728 690.052 172.348C690.052 170.968 690.302 169.973 690.802 169.363C691.302 168.743 692.107 168.433 693.217 168.433ZM696.768 173.038V171.208H701.208V173.038H696.768ZM709.446 176.113H703.026V174.358L705.141 172.213C705.891 171.443 706.411 170.853 706.701 170.443C707.001 170.033 707.151 169.598 707.151 169.138C707.151 168.668 707.026 168.338 706.776 168.148C706.536 167.958 706.191 167.863 705.741 167.863C705.071 167.863 704.341 167.923 703.551 168.043L703.191 168.088L703.086 166.483C704.066 166.183 705.081 166.033 706.131 166.033C708.231 166.033 709.281 166.978 709.281 168.868C709.281 169.608 709.121 170.248 708.801 170.788C708.481 171.328 707.901 171.983 707.061 172.753L705.336 174.313H709.446V176.113ZM711.764 167.263C712.414 166.443 713.374 166.033 714.644 166.033C715.914 166.033 716.869 166.443 717.509 167.263C718.159 168.083 718.484 169.403 718.484 171.223C718.484 173.033 718.164 174.333 717.524 175.123C716.884 175.903 715.924 176.293 714.644 176.293C713.364 176.293 712.404 175.903 711.764 175.123C711.124 174.333 710.804 173.033 710.804 171.223C710.804 169.403 711.124 168.083 711.764 167.263ZM716.354 171.178C716.354 169.938 716.224 169.073 715.964 168.583C715.704 168.083 715.264 167.833 714.644 167.833C714.034 167.833 713.594 168.083 713.324 168.583C713.064 169.083 712.934 169.948 712.934 171.178C712.934 172.408 713.069 173.268 713.339 173.758C713.609 174.248 714.049 174.493 714.659 174.493C715.269 174.493 715.704 174.248 715.964 173.758C716.224 173.268 716.354 172.408 716.354 171.178ZM724.088 169.513H722.318L722.258 165.913H724.193L724.088 169.513ZM721.508 169.513H719.738L719.663 165.913H721.598L721.508 169.513ZM723.43 177.958L724.18 174.058H726.4L725.05 177.958H723.43ZM730.445 169.513H728.675L728.615 165.913H730.55L730.445 169.513ZM727.865 169.513H726.095L726.02 165.913H727.955L727.865 169.513ZM732.536 169.468C733.066 168.778 733.951 168.433 735.191 168.433C736.431 168.433 737.316 168.778 737.846 169.468C738.376 170.148 738.641 171.108 738.641 172.348C738.641 174.978 737.491 176.293 735.191 176.293C732.891 176.293 731.741 174.978 731.741 172.348C731.741 171.108 732.006 170.148 732.536 169.468ZM734.081 174.043C734.291 174.403 734.661 174.583 735.191 174.583C735.721 174.583 736.086 174.403 736.286 174.043C736.496 173.683 736.601 173.118 736.601 172.348C736.601 171.578 736.496 171.018 736.286 170.668C736.086 170.318 735.721 170.143 735.191 170.143C734.661 170.143 734.291 170.318 734.081 170.668C733.881 171.018 733.781 171.578 733.781 172.348C733.781 173.118 733.881 173.683 734.081 174.043ZM740.115 179.263V168.613H742.11V169.018C742.76 168.628 743.33 168.433 743.82 168.433C744.83 168.433 745.575 168.738 746.055 169.348C746.535 169.948 746.775 170.973 746.775 172.423C746.775 173.873 746.51 174.883 745.98 175.453C745.45 176.013 744.58 176.293 743.37 176.293C743.04 176.293 742.685 176.263 742.305 176.203L742.125 176.173V179.263H740.115ZM743.43 170.233C743.06 170.233 742.685 170.308 742.305 170.458L742.125 170.533V174.463C742.575 174.523 742.94 174.553 743.22 174.553C743.8 174.553 744.195 174.383 744.405 174.043C744.625 173.703 744.735 173.123 744.735 172.303C744.735 170.923 744.3 170.233 743.43 170.233ZM752.418 169.513H750.648L750.588 165.913H752.523L752.418 169.513ZM749.838 169.513H748.068L747.993 165.913H749.928L749.838 169.513ZM754.175 171.778V169.288H756.335V171.778H754.175ZM754.175 176.113V173.623H756.335V176.113H754.175ZM762.423 169.513H760.653L760.593 165.913H762.528L762.423 169.513ZM759.843 169.513H758.073L757.998 165.913H759.933L759.843 169.513ZM770.454 165.613V176.113H768.459V175.798C767.759 176.128 767.154 176.293 766.644 176.293C765.554 176.293 764.794 175.978 764.364 175.348C763.934 174.718 763.719 173.723 763.719 172.363C763.719 170.993 763.974 169.998 764.484 169.378C765.004 168.748 765.784 168.433 766.824 168.433C767.144 168.433 767.589 168.483 768.159 168.583L768.444 168.643V165.613H770.454ZM768.234 174.313L768.444 174.268V170.323C767.894 170.223 767.404 170.173 766.974 170.173C766.164 170.173 765.759 170.893 765.759 172.333C765.759 173.113 765.849 173.668 766.029 173.998C766.209 174.328 766.504 174.493 766.914 174.493C767.334 174.493 767.774 174.433 768.234 174.313ZM773.962 173.218C773.972 173.678 774.092 174.013 774.322 174.223C774.562 174.423 774.902 174.523 775.342 174.523C776.272 174.523 777.102 174.493 777.832 174.433L778.252 174.388L778.282 175.873C777.132 176.153 776.092 176.293 775.162 176.293C774.032 176.293 773.212 175.993 772.702 175.393C772.192 174.793 771.937 173.818 771.937 172.468C771.937 169.778 773.042 168.433 775.252 168.433C777.432 168.433 778.522 169.563 778.522 171.823L778.372 173.218H773.962ZM776.542 171.688C776.542 171.088 776.447 170.673 776.257 170.443C776.067 170.203 775.732 170.083 775.252 170.083C774.782 170.083 774.447 170.208 774.247 170.458C774.057 170.698 773.957 171.108 773.947 171.688H776.542ZM779.958 179.263V168.613H781.953V169.018C782.603 168.628 783.173 168.433 783.663 168.433C784.673 168.433 785.418 168.738 785.898 169.348C786.378 169.948 786.618 170.973 786.618 172.423C786.618 173.873 786.353 174.883 785.823 175.453C785.293 176.013 784.423 176.293 783.213 176.293C782.883 176.293 782.528 176.263 782.148 176.203L781.968 176.173V179.263H779.958ZM783.273 170.233C782.903 170.233 782.528 170.308 782.148 170.458L781.968 170.533V174.463C782.418 174.523 782.783 174.553 783.063 174.553C783.643 174.553 784.038 174.383 784.248 174.043C784.468 173.703 784.578 173.123 784.578 172.303C784.578 170.923 784.143 170.233 783.273 170.233ZM788.208 176.113V165.613H790.218V176.113H788.208ZM792.565 169.468C793.095 168.778 793.98 168.433 795.22 168.433C796.46 168.433 797.345 168.778 797.875 169.468C798.405 170.148 798.67 171.108 798.67 172.348C798.67 174.978 797.52 176.293 795.22 176.293C792.92 176.293 791.77 174.978 791.77 172.348C791.77 171.108 792.035 170.148 792.565 169.468ZM794.11 174.043C794.32 174.403 794.69 174.583 795.22 174.583C795.75 174.583 796.115 174.403 796.315 174.043C796.525 173.683 796.63 173.118 796.63 172.348C796.63 171.578 796.525 171.018 796.315 170.668C796.115 170.318 795.75 170.143 795.22 170.143C794.69 170.143 794.32 170.318 794.11 170.668C793.91 171.018 793.81 171.578 793.81 172.348C793.81 173.118 793.91 173.683 794.11 174.043ZM799.322 168.613H801.302L802.667 174.403H803.012L804.377 168.613H806.357L803.717 179.263H801.752L802.577 176.113H801.167L799.322 168.613ZM811.832 169.513H810.062L810.002 165.913H811.937L811.832 169.513ZM809.252 169.513H807.482L807.407 165.913H809.342L809.252 169.513ZM811.174 177.958L811.924 174.058H814.144L812.794 177.958H811.174ZM818.189 169.513H816.419L816.359 165.913H818.294L818.189 169.513ZM815.609 169.513H813.839L813.764 165.913H815.699L815.609 169.513ZM824.191 170.323H822.346V173.398C822.346 173.698 822.351 173.913 822.361 174.043C822.381 174.163 822.436 174.268 822.526 174.358C822.626 174.448 822.776 174.493 822.976 174.493L824.116 174.463L824.206 176.068C823.536 176.218 823.026 176.293 822.676 176.293C821.776 176.293 821.161 176.093 820.831 175.693C820.501 175.283 820.336 174.533 820.336 173.443V170.323H819.451V168.613H820.336V166.528H822.346V168.613H824.191V170.323ZM825.5 176.113V168.613H827.51V176.113H825.5ZM825.5 167.653V165.613H827.51V167.653H825.5ZM832.173 168.433C832.693 168.433 833.358 168.513 834.168 168.673L834.573 168.763L834.513 170.353C833.723 170.273 833.138 170.233 832.758 170.233C832.068 170.233 831.608 170.383 831.378 170.683C831.158 170.973 831.048 171.528 831.048 172.348C831.048 173.168 831.158 173.733 831.378 174.043C831.608 174.343 832.073 174.493 832.773 174.493L834.513 174.373L834.573 175.978C833.503 176.188 832.688 176.293 832.128 176.293C831.018 176.293 830.218 175.983 829.728 175.363C829.248 174.733 829.008 173.728 829.008 172.348C829.008 170.968 829.258 169.973 829.758 169.363C830.258 168.743 831.063 168.433 832.173 168.433ZM838.072 176.113H836.062V165.613H838.072V171.583L838.837 171.448L840.322 168.613H842.572L840.622 172.168L842.677 176.113H840.412L838.897 173.188L838.072 173.323V176.113ZM848.102 169.513H846.332L846.272 165.913H848.207L848.102 169.513ZM845.522 169.513H843.752L843.677 165.913H845.612L845.522 169.513ZM849.859 171.778V169.288H852.019V171.778H849.859ZM849.859 176.113V173.623H852.019V176.113H849.859ZM858.106 169.513H856.336L856.276 165.913H858.211L858.106 169.513ZM855.526 169.513H853.756L853.681 165.913H855.616L855.526 169.513ZM860.197 169.468C860.727 168.778 861.612 168.433 862.852 168.433C864.092 168.433 864.977 168.778 865.507 169.468C866.037 170.148 866.302 171.108 866.302 172.348C866.302 174.978 865.152 176.293 862.852 176.293C860.552 176.293 859.402 174.978 859.402 172.348C859.402 171.108 859.667 170.148 860.197 169.468ZM861.742 174.043C861.952 174.403 862.322 174.583 862.852 174.583C863.382 174.583 863.747 174.403 863.947 174.043C864.157 173.683 864.262 173.118 864.262 172.348C864.262 171.578 864.157 171.018 863.947 170.668C863.747 170.318 863.382 170.143 862.852 170.143C862.322 170.143 861.952 170.318 861.742 170.668C861.542 171.018 861.442 171.578 861.442 172.348C861.442 173.118 861.542 173.683 861.742 174.043ZM867.776 176.113V168.613H869.771V169.408C870.611 168.908 871.411 168.583 872.171 168.433V170.458C871.361 170.628 870.666 170.803 870.086 170.983L869.786 171.088V176.113H867.776ZM879.732 165.613V176.113H877.737V175.798C877.037 176.128 876.432 176.293 875.922 176.293C874.832 176.293 874.072 175.978 873.642 175.348C873.212 174.718 872.997 173.723 872.997 172.363C872.997 170.993 873.252 169.998 873.762 169.378C874.282 168.748 875.062 168.433 876.102 168.433C876.422 168.433 876.867 168.483 877.437 168.583L877.722 168.643V165.613H879.732ZM877.512 174.313L877.722 174.268V170.323C877.172 170.223 876.682 170.173 876.252 170.173C875.442 170.173 875.037 170.893 875.037 172.333C875.037 173.113 875.127 173.668 875.307 173.998C875.487 174.328 875.782 174.493 876.192 174.493C876.612 174.493 877.052 174.433 877.512 174.313ZM881.589 176.113V168.613H883.599V176.113H881.589ZM881.589 167.653V165.613H883.599V167.653H881.589ZM889.776 169.513H888.006L887.946 165.913H889.881L889.776 169.513ZM887.196 169.513H885.426L885.351 165.913H887.286L887.196 169.513ZM889.118 177.958L889.868 174.058H892.088L890.738 177.958H889.118ZM896.134 169.513H894.364L894.304 165.913H896.239L896.134 169.513ZM893.554 169.513H891.784L891.709 165.913H893.644L893.554 169.513ZM899.991 176.113H897.981V168.613H899.976V169.033C900.666 168.633 901.256 168.433 901.746 168.433C902.556 168.433 903.181 168.668 903.621 169.138C904.541 168.668 905.381 168.433 906.141 168.433C907.131 168.433 907.816 168.723 908.196 169.303C908.586 169.873 908.781 170.788 908.781 172.048V176.113H906.771V172.108C906.771 171.468 906.701 170.998 906.561 170.698C906.421 170.388 906.141 170.233 905.721 170.233C905.401 170.233 905.011 170.303 904.551 170.443L904.326 170.518C904.366 171.268 904.386 171.838 904.386 172.228V176.113H902.376V172.258C902.376 171.518 902.311 170.998 902.181 170.698C902.051 170.388 901.766 170.233 901.326 170.233C900.936 170.233 900.551 170.303 900.171 170.443L899.991 170.503V176.113ZM916.309 170.953V174.073C916.329 174.313 916.369 174.483 916.429 174.583C916.489 174.673 916.614 174.738 916.804 174.778L916.744 176.293C916.234 176.293 915.824 176.258 915.514 176.188C915.214 176.118 914.909 175.978 914.599 175.768C913.879 176.118 913.144 176.293 912.394 176.293C910.844 176.293 910.069 175.473 910.069 173.833C910.069 173.033 910.284 172.468 910.714 172.138C911.144 171.798 911.804 171.598 912.694 171.538L914.299 171.418V170.953C914.299 170.643 914.229 170.433 914.089 170.323C913.949 170.203 913.724 170.143 913.414 170.143L910.594 170.263L910.534 168.868C911.604 168.578 912.619 168.433 913.579 168.433C914.549 168.433 915.244 168.633 915.664 169.033C916.094 169.433 916.309 170.073 916.309 170.953ZM912.934 172.933C912.374 172.983 912.094 173.283 912.094 173.833C912.094 174.383 912.339 174.658 912.829 174.658C913.209 174.658 913.624 174.598 914.074 174.478L914.299 174.418V172.813L912.934 172.933ZM917.505 168.613H919.65L920.85 170.938L922.065 168.613H924.21L922.08 172.288L924.21 176.113H922.065L920.85 173.818L919.65 176.113H917.505L919.56 172.348L917.505 168.613ZM929.649 169.513H927.879L927.819 165.913H929.754L929.649 169.513ZM927.069 169.513H925.299L925.224 165.913H927.159L927.069 169.513ZM931.406 171.778V169.288H933.566V171.778H931.406ZM931.406 176.113V173.623H933.566V176.113H931.406ZM939.654 169.513H937.884L937.824 165.913H939.759L939.654 169.513ZM937.074 169.513H935.304L935.229 165.913H937.164L937.074 169.513ZM947.966 176.113H941.546V174.358L943.661 172.213C944.411 171.443 944.931 170.853 945.221 170.443C945.521 170.033 945.671 169.598 945.671 169.138C945.671 168.668 945.546 168.338 945.296 168.148C945.056 167.958 944.711 167.863 944.261 167.863C943.591 167.863 942.861 167.923 942.071 168.043L941.711 168.088L941.606 166.483C942.586 166.183 943.601 166.033 944.651 166.033C946.751 166.033 947.801 166.978 947.801 168.868C947.801 169.608 947.641 170.248 947.321 170.788C947.001 171.328 946.421 171.983 945.581 172.753L943.856 174.313H947.966V176.113ZM955.235 166.213V176.113H953.165V168.553L951.02 169.933L950.075 168.388L953.345 166.213H955.235ZM958.678 167.263C959.328 166.443 960.288 166.033 961.558 166.033C962.828 166.033 963.783 166.443 964.423 167.263C965.073 168.083 965.398 169.403 965.398 171.223C965.398 173.033 965.078 174.333 964.438 175.123C963.798 175.903 962.838 176.293 961.558 176.293C960.278 176.293 959.318 175.903 958.678 175.123C958.038 174.333 957.718 173.033 957.718 171.223C957.718 169.403 958.038 168.083 958.678 167.263ZM963.268 171.178C963.268 169.938 963.138 169.073 962.878 168.583C962.618 168.083 962.178 167.833 961.558 167.833C960.948 167.833 960.508 168.083 960.238 168.583C959.978 169.083 959.848 169.948 959.848 171.178C959.848 172.408 959.983 173.268 960.253 173.758C960.523 174.248 960.963 174.493 961.573 174.493C962.183 174.493 962.618 174.248 962.878 173.758C963.138 173.268 963.268 172.408 963.268 171.178ZM967.072 167.263C967.722 166.443 968.682 166.033 969.952 166.033C971.222 166.033 972.177 166.443 972.817 167.263C973.467 168.083 973.792 169.403 973.792 171.223C973.792 173.033 973.472 174.333 972.832 175.123C972.192 175.903 971.232 176.293 969.952 176.293C968.672 176.293 967.712 175.903 967.072 175.123C966.432 174.333 966.112 173.033 966.112 171.223C966.112 169.403 966.432 168.083 967.072 167.263ZM971.662 171.178C971.662 169.938 971.532 169.073 971.272 168.583C971.012 168.083 970.572 167.833 969.952 167.833C969.342 167.833 968.902 168.083 968.632 168.583C968.372 169.083 968.242 169.948 968.242 171.178C968.242 172.408 968.377 173.268 968.647 173.758C968.917 174.248 969.357 174.493 969.967 174.493C970.577 174.493 971.012 174.248 971.272 173.758C971.532 173.268 971.662 172.408 971.662 171.178ZM975.466 167.263C976.116 166.443 977.076 166.033 978.346 166.033C979.616 166.033 980.571 166.443 981.211 167.263C981.861 168.083 982.186 169.403 982.186 171.223C982.186 173.033 981.866 174.333 981.226 175.123C980.586 175.903 979.626 176.293 978.346 176.293C977.066 176.293 976.106 175.903 975.466 175.123C974.826 174.333 974.506 173.033 974.506 171.223C974.506 169.403 974.826 168.083 975.466 167.263ZM980.056 171.178C980.056 169.938 979.926 169.073 979.666 168.583C979.406 168.083 978.966 167.833 978.346 167.833C977.736 167.833 977.296 168.083 977.026 168.583C976.766 169.083 976.636 169.948 976.636 171.178C976.636 172.408 976.771 173.268 977.041 173.758C977.311 174.248 977.751 174.493 978.361 174.493C978.971 174.493 979.406 174.248 979.666 173.758C979.926 173.268 980.056 172.408 980.056 171.178ZM983.859 167.263C984.509 166.443 985.469 166.033 986.739 166.033C988.009 166.033 988.964 166.443 989.604 167.263C990.254 168.083 990.579 169.403 990.579 171.223C990.579 173.033 990.259 174.333 989.619 175.123C988.979 175.903 988.019 176.293 986.739 176.293C985.459 176.293 984.499 175.903 983.859 175.123C983.219 174.333 982.899 173.033 982.899 171.223C982.899 169.403 983.219 168.083 983.859 167.263ZM988.449 171.178C988.449 169.938 988.319 169.073 988.059 168.583C987.799 168.083 987.359 167.833 986.739 167.833C986.129 167.833 985.689 168.083 985.419 168.583C985.159 169.083 985.029 169.948 985.029 171.178C985.029 172.408 985.164 173.268 985.434 173.758C985.704 174.248 986.144 174.493 986.754 174.493C987.364 174.493 987.799 174.248 988.059 173.758C988.319 173.268 988.449 172.408 988.449 171.178ZM992.253 167.263C992.903 166.443 993.863 166.033 995.133 166.033C996.403 166.033 997.358 166.443 997.998 167.263C998.648 168.083 998.973 169.403 998.973 171.223C998.973 173.033 998.653 174.333 998.013 175.123C997.373 175.903 996.413 176.293 995.133 176.293C993.853 176.293 992.893 175.903 992.253 175.123C991.613 174.333 991.293 173.033 991.293 171.223C991.293 169.403 991.613 168.083 992.253 167.263ZM996.843 171.178C996.843 169.938 996.713 169.073 996.453 168.583C996.193 168.083 995.753 167.833 995.133 167.833C994.523 167.833 994.083 168.083 993.813 168.583C993.553 169.083 993.423 169.948 993.423 171.178C993.423 172.408 993.558 173.268 993.828 173.758C994.098 174.248 994.538 174.493 995.148 174.493C995.758 174.493 996.193 174.248 996.453 173.758C996.713 173.268 996.843 172.408 996.843 171.178ZM1000.65 167.263C1001.3 166.443 1002.26 166.033 1003.53 166.033C1004.8 166.033 1005.75 166.443 1006.39 167.263C1007.04 168.083 1007.37 169.403 1007.37 171.223C1007.37 173.033 1007.05 174.333 1006.41 175.123C1005.77 175.903 1004.81 176.293 1003.53 176.293C1002.25 176.293 1001.29 175.903 1000.65 175.123C1000.01 174.333 999.686 173.033 999.686 171.223C999.686 169.403 1000.01 168.083 1000.65 167.263ZM1005.24 171.178C1005.24 169.938 1005.11 169.073 1004.85 168.583C1004.59 168.083 1004.15 167.833 1003.53 167.833C1002.92 167.833 1002.48 168.083 1002.21 168.583C1001.95 169.083 1001.82 169.948 1001.82 171.178C1001.82 172.408 1001.95 173.268 1002.22 173.758C1002.49 174.248 1002.93 174.493 1003.54 174.493C1004.15 174.493 1004.59 174.248 1004.85 173.758C1005.11 173.268 1005.24 172.408 1005.24 171.178ZM1012.97 169.513H1011.2L1011.14 165.913H1013.07L1012.97 169.513ZM1010.39 169.513H1008.62L1008.54 165.913H1010.48L1010.39 169.513ZM1012.31 177.958L1013.06 174.058H1015.28L1013.93 177.958H1012.31ZM1019.33 169.513H1017.56L1017.5 165.913H1019.43L1019.33 169.513ZM1016.75 169.513H1014.98L1014.9 165.913H1016.84L1016.75 169.513ZM1021.26 176.113V165.613H1023.27V176.113H1021.26ZM1025.22 176.113V168.613H1027.23V176.113H1025.22ZM1025.22 167.653V165.613H1027.23V167.653H1025.22ZM1031.09 176.113H1029.08V168.613H1031.08V169.033C1031.77 168.633 1032.36 168.433 1032.85 168.433C1033.66 168.433 1034.28 168.668 1034.72 169.138C1035.64 168.668 1036.48 168.433 1037.24 168.433C1038.23 168.433 1038.92 168.723 1039.3 169.303C1039.69 169.873 1039.88 170.788 1039.88 172.048V176.113H1037.87V172.108C1037.87 171.468 1037.8 170.998 1037.66 170.698C1037.52 170.388 1037.24 170.233 1036.82 170.233C1036.5 170.233 1036.11 170.303 1035.65 170.443L1035.43 170.518C1035.47 171.268 1035.49 171.838 1035.49 172.228V176.113H1033.48V172.258C1033.48 171.518 1033.41 170.998 1033.28 170.698C1033.15 170.388 1032.87 170.233 1032.43 170.233C1032.04 170.233 1031.65 170.303 1031.27 170.443L1031.09 170.503V176.113ZM1045.84 169.513H1044.07L1044.01 165.913H1045.95L1045.84 169.513ZM1043.26 169.513H1041.49L1041.42 165.913H1043.35L1043.26 169.513ZM1047.6 171.778V169.288H1049.76V171.778H1047.6ZM1047.6 176.113V173.623H1049.76V176.113H1047.6ZM1055.85 169.513H1054.08L1054.02 165.913H1055.95L1055.85 169.513ZM1053.27 169.513H1051.5L1051.42 165.913H1053.36L1053.27 169.513ZM1063.03 166.213V176.113H1060.96V168.553L1058.82 169.933L1057.87 168.388L1061.14 166.213H1063.03ZM1066.48 167.263C1067.13 166.443 1068.09 166.033 1069.36 166.033C1070.63 166.033 1071.58 166.443 1072.22 167.263C1072.87 168.083 1073.2 169.403 1073.2 171.223C1073.2 173.033 1072.88 174.333 1072.24 175.123C1071.6 175.903 1070.64 176.293 1069.36 176.293C1068.08 176.293 1067.12 175.903 1066.48 175.123C1065.84 174.333 1065.52 173.033 1065.52 171.223C1065.52 169.403 1065.84 168.083 1066.48 167.263ZM1071.07 171.178C1071.07 169.938 1070.94 169.073 1070.68 168.583C1070.42 168.083 1069.98 167.833 1069.36 167.833C1068.75 167.833 1068.31 168.083 1068.04 168.583C1067.78 169.083 1067.65 169.948 1067.65 171.178C1067.65 172.408 1067.78 173.268 1068.05 173.758C1068.32 174.248 1068.76 174.493 1069.37 174.493C1069.98 174.493 1070.42 174.248 1070.68 173.758C1070.94 173.268 1071.07 172.408 1071.07 171.178ZM1074.87 167.263C1075.52 166.443 1076.48 166.033 1077.75 166.033C1079.02 166.033 1079.97 166.443 1080.61 167.263C1081.26 168.083 1081.59 169.403 1081.59 171.223C1081.59 173.033 1081.27 174.333 1080.63 175.123C1079.99 175.903 1079.03 176.293 1077.75 176.293C1076.47 176.293 1075.51 175.903 1074.87 175.123C1074.23 174.333 1073.91 173.033 1073.91 171.223C1073.91 169.403 1074.23 168.083 1074.87 167.263ZM1079.46 171.178C1079.46 169.938 1079.33 169.073 1079.07 168.583C1078.81 168.083 1078.37 167.833 1077.75 167.833C1077.14 167.833 1076.7 168.083 1076.43 168.583C1076.17 169.083 1076.04 169.948 1076.04 171.178C1076.04 172.408 1076.17 173.268 1076.44 173.758C1076.71 174.248 1077.15 174.493 1077.76 174.493C1078.37 174.493 1078.81 174.248 1079.07 173.758C1079.33 173.268 1079.46 172.408 1079.46 171.178ZM1083.26 167.263C1083.91 166.443 1084.87 166.033 1086.14 166.033C1087.41 166.033 1088.37 166.443 1089.01 167.263C1089.66 168.083 1089.98 169.403 1089.98 171.223C1089.98 173.033 1089.66 174.333 1089.02 175.123C1088.38 175.903 1087.42 176.293 1086.14 176.293C1084.86 176.293 1083.9 175.903 1083.26 175.123C1082.62 174.333 1082.3 173.033 1082.3 171.223C1082.3 169.403 1082.62 168.083 1083.26 167.263ZM1087.85 171.178C1087.85 169.938 1087.72 169.073 1087.46 168.583C1087.2 168.083 1086.76 167.833 1086.14 167.833C1085.53 167.833 1085.09 168.083 1084.82 168.583C1084.56 169.083 1084.43 169.948 1084.43 171.178C1084.43 172.408 1084.57 173.268 1084.84 173.758C1085.11 174.248 1085.55 174.493 1086.16 174.493C1086.77 174.493 1087.2 174.248 1087.46 173.758C1087.72 173.268 1087.85 172.408 1087.85 171.178ZM1095.59 169.513H1093.82L1093.76 165.913H1095.69L1095.59 169.513ZM1093.01 169.513H1091.24L1091.16 165.913H1093.1L1093.01 169.513ZM1098.14 175.288L1098.03 173.533C1098.03 172.893 1098.14 172.423 1098.35 172.123C1098.57 171.813 1099.03 171.573 1099.73 171.403C1099.02 171.233 1098.56 171.013 1098.35 170.743C1098.15 170.473 1098.05 170.023 1098.05 169.393L1098.15 167.473C1098.15 167.143 1098.07 166.893 1097.91 166.723C1097.76 166.553 1097.47 166.448 1097.04 166.408V164.698C1098.17 164.738 1098.96 164.948 1099.41 165.328C1099.87 165.708 1100.1 166.373 1100.1 167.323L1100 169.228C1100 169.908 1100.56 170.378 1101.68 170.638V172.198C1100.56 172.488 1100 172.998 1100 173.728L1100.1 175.543C1100.1 176.443 1099.87 177.088 1099.41 177.478C1098.96 177.868 1098.18 178.083 1097.07 178.123V176.413C1097.49 176.383 1097.77 176.273 1097.91 176.083C1098.06 175.893 1098.14 175.628 1098.14 175.288Z" fill="white"/>
</svg>
