<svg xmlns="http://www.w3.org/2000/svg" viewBox="0 0 568.23 568.23"><defs><style>.cls-1{fill:#fff;}.cls-2{fill:#ff7f00;}</style></defs><g id="Layer_2" data-name="Layer 2"><g id="Layer_1-2" data-name="Layer 1"><rect class="cls-1" width="568.23" height="568.23" rx="71.18"/><path class="cls-2" d="M411,430.28a4.38,4.38,0,0,0-2.82,1,193,193,0,0,1-248.09,0,4.38,4.38,0,0,0-2.82-1H86.8a4.45,4.45,0,0,0-3.53,7.16,253.3,253.3,0,0,0,401.7,0,4.46,4.46,0,0,0-3.54-7.16Z"/><path class="cls-2" d="M346.87,99.09a4.39,4.39,0,0,0,2.34,1.94c74.69,26.79,128.27,98.29,128.27,182.08a193.32,193.32,0,0,1-3.13,34.68,4.39,4.39,0,0,0,.51,3l35,60.62a4.46,4.46,0,0,0,8-.49,252.48,252.48,0,0,0,19.58-97.8c0-129-96.41-235.42-221.09-251.24a4.46,4.46,0,0,0-4.42,6.64Z"/><path class="cls-2" d="M93.37,320.78a4.39,4.39,0,0,0,.51-3,193.32,193.32,0,0,1-3.13-34.68C90.75,199.32,144.33,127.82,219,101a4.35,4.35,0,0,0,2.34-1.94l35-60.58a4.46,4.46,0,0,0-4.42-6.64C127.24,47.69,30.83,154.13,30.83,283.11a252.48,252.48,0,0,0,19.58,97.8,4.46,4.46,0,0,0,8,.49Z"/><path d="M280.27,75.62,103.18,382.35A4.44,4.44,0,0,0,107,389H461.2a4.44,4.44,0,0,0,3.85-6.66L288,75.62A4.44,4.44,0,0,0,280.27,75.62ZM288,195.47l73.3,127a4.44,4.44,0,0,1-3.85,6.66H210.82a4.44,4.44,0,0,1-3.84-6.66l73.29-127A4.44,4.44,0,0,1,288,195.47Z"/></g></g></svg>