<svg xmlns="http://www.w3.org/2000/svg" viewBox="0 0 493.51 491.55"><defs><style>.cls-1{fill:#ff7f00;}</style></defs><g id="Layer_2" data-name="Layer 2"><g id="Layer_1-2" data-name="Layer 1"><path class="cls-1" d="M370.35,388.17a4.26,4.26,0,0,0-2.75,1,188,188,0,0,1-241.7,0,4.25,4.25,0,0,0-2.74-1H54.53a4.33,4.33,0,0,0-3.44,7,246.76,246.76,0,0,0,391.33,0,4.33,4.33,0,0,0-3.44-7Z"/><path class="cls-1" d="M307.89,65.53a4.34,4.34,0,0,0,2.28,1.89c72.76,26.09,125,95.75,125,177.38a189,189,0,0,1-3.05,33.78,4.28,4.28,0,0,0,.5,2.91l34.1,59.06a4.34,4.34,0,0,0,7.75-.48,246,246,0,0,0,19.08-95.27c0-125.66-93.93-229.35-215.4-244.76a4.33,4.33,0,0,0-4.29,6.46Z"/><path class="cls-1" d="M60.93,281.49a4.28,4.28,0,0,0,.5-2.91,188.05,188.05,0,0,1-3-33.78c0-81.63,52.2-151.29,125-177.38a4.28,4.28,0,0,0,2.27-1.89l34.08-59A4.33,4.33,0,0,0,215.39,0C93.92,15.45,0,119.14,0,244.8a246,246,0,0,0,19.08,95.27,4.34,4.34,0,0,0,7.75.48Z"/><path d="M243,42.66,70.49,341.47A4.33,4.33,0,0,0,74.23,348h345a4.33,4.33,0,0,0,3.75-6.49L250.5,42.66A4.33,4.33,0,0,0,243,42.66Zm7.49,116.76,71.4,123.67a4.32,4.32,0,0,1-3.74,6.49H175.35a4.33,4.33,0,0,1-3.75-6.49L243,159.42A4.33,4.33,0,0,1,250.5,159.42Z"/></g></g></svg>