<svg xmlns="http://www.w3.org/2000/svg" viewBox="0 0 1164.9 491.55"><defs><style>.cls-1{fill:#ff7f00;}</style></defs><g id="Layer_2" data-name="Layer 2"><g id="Layer_1-2" data-name="Layer 1"><path class="cls-1" d="M370.35,388.17a4.26,4.26,0,0,0-2.75,1,188,188,0,0,1-241.7,0,4.25,4.25,0,0,0-2.74-1H54.53a4.33,4.33,0,0,0-3.44,7,246.76,246.76,0,0,0,391.33,0,4.33,4.33,0,0,0-3.44-7Z"/><path class="cls-1" d="M307.89,65.53a4.34,4.34,0,0,0,2.28,1.89c72.76,26.09,125,95.75,125,177.38a189,189,0,0,1-3.05,33.78,4.28,4.28,0,0,0,.5,2.91l34.1,59.06a4.34,4.34,0,0,0,7.75-.48,246,246,0,0,0,19.08-95.27c0-125.66-93.93-229.35-215.4-244.76a4.33,4.33,0,0,0-4.29,6.46Z"/><path class="cls-1" d="M60.93,281.49a4.28,4.28,0,0,0,.5-2.91,188.05,188.05,0,0,1-3-33.78c0-81.63,52.2-151.29,125-177.38a4.28,4.28,0,0,0,2.27-1.89l34.08-59A4.33,4.33,0,0,0,215.39,0C93.92,15.45,0,119.14,0,244.8a246,246,0,0,0,19.08,95.27,4.34,4.34,0,0,0,7.75.48Z"/><path d="M243,42.66,70.49,341.47A4.33,4.33,0,0,0,74.23,348h345a4.33,4.33,0,0,0,3.75-6.49L250.5,42.66A4.33,4.33,0,0,0,243,42.66Zm7.49,116.76,71.4,123.67a4.32,4.32,0,0,1-3.74,6.49H175.35a4.33,4.33,0,0,1-3.75-6.49L243,159.42A4.33,4.33,0,0,1,250.5,159.42Z"/><path d="M725.37,378.5H539.23a2.77,2.77,0,0,1-2.77-2.77v0a2.74,2.74,0,0,1,.46-1.52L640.83,215.46a2.76,2.76,0,0,0-2.31-4.28H548.28a2.76,2.76,0,0,1-2.73-3.18l7.28-47.38a2.77,2.77,0,0,1,2.74-2.35H737.64a2.77,2.77,0,0,1,2.77,2.77h0a2.79,2.79,0,0,1-.48,1.56L632.1,321.27a2.77,2.77,0,0,0,2.29,4.32h98.27a2.77,2.77,0,0,1,2.74,3.19l-7.29,47.37A2.77,2.77,0,0,1,725.37,378.5Z"/><path d="M997.36,162.15,863.22,467.29a2.76,2.76,0,0,1-2.53,1.65H805.57a2.77,2.77,0,0,1-2.57-3.81l42.33-103.65a2.79,2.79,0,0,0,0-2.14L760.6,162.13a2.76,2.76,0,0,1,2.54-3.86h61.31A2.77,2.77,0,0,1,827,160l49.67,123.55a2.77,2.77,0,0,0,5.13,0l51-123.6a2.75,2.75,0,0,1,2.55-1.72h59.48A2.77,2.77,0,0,1,997.36,162.15Z"/><path d="M1073.67,267.26V375.73a2.77,2.77,0,0,1-2.76,2.77h-56.42a2.77,2.77,0,0,1-2.77-2.77V161a2.77,2.77,0,0,1,2.77-2.77h45.36a2.76,2.76,0,0,1,2.75,2.51l2.59,27.54a2.76,2.76,0,0,0,5.06,1.26q22.89-35.37,60.85-35.37a82.13,82.13,0,0,1,32.13,6.25,2.76,2.76,0,0,1,1.56,3.32l-16,55.46A2.73,2.73,0,0,1,1145,221q-10.08-4.82-24.27-4.81-19.9,0-31.65,11.3Q1073.66,240.59,1073.67,267.26Z"/></g></g></svg>