<svg width="594" height="591" viewBox="0 0 594 591" fill="none" xmlns="http://www.w3.org/2000/svg">
<g clip-path="url(#clip0_1767_194)">
<path d="M427.343 181.271C397.791 185.651 369.572 191.927 340.442 197.88C331.546 178.203 329.369 173.787 311.296 164.823C311.213 186.625 311.359 208.104 311.156 229.813C387.458 249.297 433.161 269.063 424.494 338.599C417.463 395.005 368.713 451.834 306.775 442.542C306.395 456.531 306.338 470.88 305.906 484.828C297.546 483.594 289.38 481.974 281.02 480.339C280.796 466.698 279.963 453.542 279.749 439.875C225.765 424.125 182.692 389.584 163.838 337.427C191.426 336.651 219.281 332.172 247.614 329.891C254.52 356.099 258.838 366.641 279.807 380.891C279.442 355.261 278.015 329.776 277.697 304.052C115.63 273.542 126.9 151.802 276.635 111.677C276.572 104.406 275.38 95.245 275.322 87.9689C287.109 85.6668 299.932 83.8856 311.718 82.146C311.739 89.646 311.312 98.7137 311.317 106.203C373.182 102.136 415.817 124.307 427.343 181.266V181.271ZM277.947 166.578C244.76 176.167 239.937 217.729 276.963 223.682C276.76 204.896 278.124 185.412 277.947 166.578ZM307.166 385.511C350.843 379.62 356.838 323.823 310.187 313.375C309.801 337.328 307.697 361.672 307.166 385.511Z" fill="white"/>
<path d="M436.897 174.552C436.949 174.594 391.334 179.583 392.001 179.515L352.053 192.198L351.391 192.406L350.865 191.922L316.501 160.234L319.079 159.104L320.131 228.984L318.454 227.099L365.704 233.026L366.23 233.088L366.667 233.411L401.657 259.224C413.469 268.255 425.256 277.323 436.985 286.463L436.954 287.578L435.693 331.338L432.699 375.021L432.652 375.745L432.152 376.25C432.006 376.38 401.219 407.463 401.089 407.583C400.985 407.708 366.376 429.786 366.256 429.906L366.089 430.015L365.912 430.068L326.001 441.667L326.74 440.729L324.464 480.682L324.412 481.599L323.501 481.526L299.245 479.63L298.6 479.578L298.49 478.943L292.12 441.828L292.511 442.375C272.917 431.984 243.766 415.875 224.558 404.297L200.938 373.114L178.464 341.104L176.933 338.911L179.62 338.917L220.912 338.984C218.537 339.505 260.355 328.427 259.699 328.583L261.001 328.239L261.725 329.39L297.261 385.609L293.199 386.911C293.204 386.599 290.245 340.646 290.282 340.38L292.6 297.234L295.037 299.823L243.704 299.833H243.157L242.646 299.604L198.511 279.693L197.813 279.38L197.396 278.739L170.688 237.974L170.271 237.338L170.266 236.578L169.876 189.625L169.865 188.495L170.693 187.734L204.704 156.547C203.355 157.63 235.6 119.661 235.204 119.786L235.626 119.286L236.23 119.083L279.74 104.463L278.339 106.417L278.49 85.6769L278.501 83.8019L280.35 83.7082L314.995 81.9217L316.579 81.8384L316.85 83.3748L319.917 100.453L318.339 99.0988C318.667 99.1092 369.256 101.047 369.558 101.062C370.527 101.458 414.032 126.823 415.001 127.265C415.193 127.323 436.725 174.443 436.902 174.557L436.897 174.552ZM436.459 174.307L413.657 128.172L413.985 128.526L368.558 103.448L369.147 103.609L318.23 102.411L316.912 102.38L316.652 101.062L313.339 84.0311L315.199 85.4842L280.579 87.6509L282.438 85.6873L282.475 106.422V107.89L281.074 108.38L237.699 123.39L238.714 122.682C238.61 122.812 208.303 159.979 208.209 160.099C208.037 160.151 174.298 191.401 174.126 191.479L174.949 189.583L175.428 236.536L175.006 235.14L201.792 275.854L200.678 274.901L244.766 294.911L243.709 294.682L295.042 294.922L297.636 294.937L297.48 297.51C297.516 297.062 294.896 341.854 294.949 340.375C295.271 346.057 297.813 390.713 298.079 395.338L293.521 387.948L258.6 331.344L260.62 332.151L221.298 342.172L221.084 342.224H220.881L179.594 341.703L180.745 339.521L202.824 371.76L226.053 403.172L225.777 402.922C237.454 409.734 264.584 425.719 276.235 431.75L293.245 441.021L293.574 441.203L293.636 441.568L300.115 478.667L299.365 477.984L323.631 479.745L322.667 480.588L324.667 440.625L324.704 439.901L325.402 439.687L365.141 427.515L364.798 427.672L399.162 404.948C398.006 406.411 429.558 373.109 429.381 373.552L428.829 374.776L431.464 331.156L432.527 287.469L433.386 289.276C416.339 275.87 381.688 249.542 364.214 236.713L365.178 237.099L317.964 230.917L316.292 230.698L316.287 229.026L316.006 159.135L315.99 155.547L318.584 158L352.522 190.151L351.334 189.875C351.397 189.885 391.568 178.042 391.631 178.042C391.693 178.036 436.386 174.323 436.454 174.318L436.459 174.307Z" fill="#FF7F00"/>
<path d="M285.849 165.406C275.635 176.49 268.323 186.719 257.026 195.849L256.958 193.385C266.958 204.656 279.26 213.333 291.016 222.604L287.344 224.406C286.927 219.719 285.896 207.87 285.818 203.328C285.568 190.729 285.974 179.198 285.849 165.411V165.406ZM286.031 164.938C287.417 175.552 289.432 189.052 290.578 200.891C291.37 210.224 291.656 220.255 291.938 229.531C279.677 218.167 268.682 205.333 254.74 195.906L253.406 194.901C262.474 183.807 275.49 173.708 286.031 164.938Z" fill="#FF7F00"/>
<path d="M323.458 381.693C334.125 370.86 348.984 354.38 360.927 345.271L360.875 347.714C349 333.307 334.833 321.198 321.073 308.688L324.807 307.276C324.39 318.891 323.713 335.099 322.567 346.495C323.302 356.292 322.911 369.943 323.458 381.693ZM323.276 382.156C321.536 370.682 318.854 358.177 317.646 346.177C317.994 332.823 319.708 315.495 320.859 302.099C334.713 316.792 347.557 332.495 363.26 345.323L364.494 346.432L363.203 347.766C351.505 360.261 336.14 371.802 323.276 382.156Z" fill="#FF7F00"/>
<path d="M412.787 171.339C412.85 171.349 369.704 176.797 370.219 176.698L328.287 197.073L327.975 197.224L327.735 196.969L298.62 165.693L299.615 165.208L309.188 224.224L308.751 223.667L327.938 231.662C341.225 236.641 371.714 250.974 385.074 256.839C385.141 256.886 421.896 282.771 421.975 282.823L422.428 283.146L422.412 283.703C422.412 283.771 421.433 329.177 421.433 329.24C421.329 329.505 415.454 372.12 415.365 372.375C415.355 372.599 395.152 412.172 395.105 412.396L394.886 412.823L394.449 413.021C394.271 413.094 353.865 430.901 353.704 430.969C353.589 431.13 308.756 437.557 308.61 437.682L309.86 435.86L321.324 486.026L321.813 488.162L319.626 487.979L285.24 485.162L283.563 485.026L283.719 483.339L288.058 436.511L289.381 438.38C289.209 438.323 247.714 428.047 247.563 427.979L208.85 414.182L208.199 413.948L207.844 413.344C207.99 413.453 186.407 376.938 186.959 377.735L167.563 351.334L166.021 349.229L168.433 348.209L202.761 333.646C203.256 333.412 203.261 333.438 203.751 333.479L240.454 336.021L241.282 336.078L241.876 336.667L283.173 377.432L279.12 379.229L277.391 343.203L277.49 343.792L267.631 310.677L269.605 312.417L226.037 305.302L225.506 305.214L225.058 304.917L185.318 278.344L185.136 278.224L184.98 278.073L151.214 245.844L150.334 245.005L150.459 243.792L155.021 198.464L155.053 198.141C155.157 197.875 172.037 153.276 172.146 152.985L172.532 151.958L173.563 151.62L219.943 136.344L219.62 136.479L261.24 114.62L260.287 116.943L250.469 85.5158L249.709 83.0835L252.235 83.172L290.61 84.5158L291.818 84.5575L292.089 85.7137L295.949 102.083L294.589 100.958C294.766 100.979 345.006 103.63 345.167 103.651C345.318 103.667 395.646 121.568 395.803 121.594L396.136 121.714L396.24 122.031L412.782 171.328L412.787 171.339ZM412.365 171.073L394.912 122.505L395.35 122.943C395.584 123.125 343.376 105.511 344.886 105.99L294.459 103.906L293.365 103.86L293.1 102.781L289.042 86.4637L290.527 87.6668L252.136 86.7762L253.907 84.4325L264.027 115.766L264.527 117.318L263.074 118.089L221.61 140.229C221.532 140.276 221.37 140.344 221.287 140.365L175.011 155.953L176.423 154.589L159.751 199.568C160.193 196.235 155.344 245.115 155.423 244.297L154.662 242.245L188.417 274.485L188.084 274.214L227.818 300.797L226.839 300.412L270.402 307.537L271.933 307.787L272.376 309.271L282.209 342.391C282.61 346.807 283.912 381.427 284.136 385.115L279.824 380.818L238.719 339.854L240.136 340.5L203.443 337.781L204.433 337.615L170.032 352.016L170.902 348.891C170.964 348.974 190.173 375.391 190.23 375.474C190.277 375.547 211.1 411.328 211.146 411.417L210.141 410.578L248.798 424.521C247.881 424.443 290.449 434.906 290.235 434.969L291.704 435.339L291.558 436.839L287.042 483.651L285.521 481.828L319.896 484.776L318.199 486.729L306.917 436.516L306.563 434.922L308.173 434.688L353.105 428.172C351.287 428.891 393.792 410.354 393.376 410.552L392.719 411.172L413.032 371.417L412.907 371.813C412.844 371.906 419.235 328.474 419.126 329.11L420.329 283.646L420.766 284.521C420.761 284.604 383.605 258.037 384.219 258.495L346.438 241.219C335.329 236.292 319.136 229.735 307.813 224.844L307.751 224.448L298.469 165.386L298.178 163.5L299.464 164.901L328.428 196.323L327.876 196.214C327.933 196.188 369.917 176.052 369.964 176.026C370.016 176.021 412.303 171.073 412.365 171.068V171.073Z" fill="#FF7F00"/>
<path d="M266.02 166.229C255.166 177.349 244.968 188.849 234.343 199.896L234.182 197.698L267.593 221.458L263.786 223.37C263.015 203.828 265.234 186.375 266.025 166.235L266.02 166.229ZM266.208 165.771C267.437 185.485 269.437 207.833 268.432 228.156C267.52 227.417 234.38 201.573 232.432 200.037L231.088 198.979L232.275 197.833C243.494 186.953 255.176 176.542 266.213 165.771H266.208Z" fill="#FF7F00"/>
<path d="M308.474 386.297C321.854 372.943 334.583 359.203 347.734 345.917L347.844 348.057L306.38 316.021L310.24 314.011C311.214 325.292 312.026 336.979 312.385 348.261C311.563 360.594 309.427 373.797 308.474 386.297ZM308.271 386.75C308.266 374.052 307.391 360.906 307.745 348.057C306.734 338.287 305.958 325.11 305.495 314.318L305.234 308.88L309.354 312.307L349.641 345.818L350.896 346.86C336.807 360.354 322.198 373.365 308.276 386.75H308.271Z" fill="#FF7F00"/>
<path d="M422.333 181.963L334.885 202.739L334.255 202.89L333.76 202.432L302.536 173.297L305.109 172.026L311.864 233.765L310.536 232.146L365.145 248.797L365.338 248.854L365.52 248.953L417.635 276.953L418.609 277.479L418.775 278.578L427.322 336.432L427.385 336.854C422.755 355.614 418.171 374.385 413.416 393.114L413.046 393.479C412.791 393.693 372.645 433.411 372.421 433.599C372.192 433.745 319.88 451.969 319.609 452.109L320.338 451.021L321.864 491.614L321.906 492.651L320.88 492.573L292.765 490.443L292.041 490.39L291.984 489.672L288.932 449.193L289.395 449.838C289.307 449.802 240.942 429.125 240.864 429.094C240.775 429.073 197.921 398.302 197.833 398.265L197.687 398.161L197.577 398.01L165.213 353.151L163.848 351.265L166.171 350.927L250.812 338.521L251.921 338.354L252.604 339.276L288.406 387.828L284.395 389.297L278.442 311.276L280.463 313.489L214.645 302.5L213.932 302.38L213.38 301.906L164.588 259.922L163.786 259.234L163.692 258.182L158.077 195.807L157.979 194.687L158.734 193.859L203.041 145.437L203.374 145.073L203.807 144.875L262.854 117.526L261.635 119.713L259.057 96.828L258.848 94.9634L260.671 94.5988L297.197 87.2863L299.348 86.854L299.437 89.0207L300.416 113.62L298.63 112.021L350.385 109.078L350.781 109.052L351.104 109.239C351.301 109.375 395.593 134.88 395.775 135C395.963 135.047 422.161 181.875 422.333 181.969V181.963ZM421.88 181.765L394.463 136.01C396.364 137.062 349.343 111.375 349.833 111.5C353.734 111.745 297.895 115.297 298.848 115.37L297.15 115.495L297.057 113.771L295.713 89.1925L297.947 90.9321L261.489 98.578L263.098 96.3488L265.885 119.208L266.072 120.734L264.666 121.396L205.874 149.281C209.515 145.969 161.64 198.036 162.499 197.286L163.15 195.338L168.885 257.708L167.989 255.969L216.775 297.958L215.515 297.364L281.275 308.693L283.161 309.015L283.291 310.917L288.822 388.969L289.374 396.771C288.499 395.896 251.906 344.531 249.546 341.5L251.338 342.255L166.562 353.734L167.52 351.51C167.442 351.167 200.13 397.87 199.114 396.489C198.989 396.344 242.411 428.047 241.645 427.51L289.999 448.427L290.421 448.614L290.463 449.073L293.661 489.542L292.885 488.765L321.01 490.734L320.02 491.693L318.13 451.114L318.088 450.307L318.859 450.026L371.088 430.87C368.458 433.114 410.942 390.239 410.338 390.781L409.833 391.677C414.104 374.552 419.15 351.088 423.088 337.068L414.374 279.234L415.515 280.859C415.958 280.859 362.046 251.974 363.932 252.724L309.411 235.776L308.197 235.401L308.077 234.156L302.062 172.344L301.661 168.224L304.63 171.073L335.452 200.635L334.333 200.323L421.869 181.765H421.88Z" fill="#FF7F00"/>
<path d="M269.484 178.495C271.854 187.458 273.036 196.573 273.286 205.792C272.922 215 272.677 224.182 274.557 233.276L271.833 233.474C268.692 215.307 267.244 196.979 268.984 178.531L269.484 178.495ZM269.484 178.495C273.859 196.5 275.052 214.844 274.557 233.276L271.833 233.474C271.968 228.87 271.896 224.276 271.396 219.719C270.057 210.64 268.026 201.625 268.297 192.37C268.276 187.771 268.364 183.172 268.989 178.531L269.489 178.495H269.484Z" fill="#FF7F00"/>
<path d="M316.312 389.318C327.083 376.448 334.885 364.521 346.792 353.49L346.859 355.849C336.354 343.203 323.781 332.667 311.396 321.948L315.031 320.313C317.344 342.787 316.292 366.724 316.312 389.318ZM316.146 389.787C313.266 365.271 310.5 339.766 310.677 315.005C323.187 328.156 334.854 342.193 349.229 353.417L350.385 354.412L349.302 355.781C339.969 368 326.745 379.547 316.146 389.787Z" fill="#FF7F00"/>
<mask id="mask0_1767_194" style="mask-type:luminance" maskUnits="userSpaceOnUse" x="162" y="84" width="277" height="404">
<path d="M162.334 84H438.631V488H162.334V84Z" fill="white"/>
</mask>
<g mask="url(#mask0_1767_194)">
<path d="M438.386 192.974C409.245 197.885 379.626 202.755 350.219 207.12L348.798 207.328L347.959 206.177L321.396 169.583L325.521 168.432L319.626 234.864L318.24 232.64L374.277 254.453L374.6 254.578L374.86 254.792L418.35 291.177L418.902 291.64L419.032 292.344L429.652 348.901L429.771 349.531L429.49 350.094L403.876 402.193L403.73 402.489L403.495 402.713L361.105 442.724L360.62 443.182L359.954 443.193L300.735 444.271L302.324 442.844L296.912 485.323L296.725 486.807L295.235 486.693L270.521 484.729L269.006 484.609L269.115 483.099L272.105 442.364L272.766 443.693C272.693 443.646 228.923 414.948 228.86 414.901C228.636 414.604 188.245 380.875 188.027 380.609C187.813 380.495 164.506 332.109 164.313 331.943L163.459 330.182L165.407 330.193L248.016 330.614H248.626L248.943 331.135L280.87 384.328L279.037 384.786L283.1 303.547L283.636 304.385L222.402 279.547C221.839 279.193 175.209 237.667 174.693 237.25C174.693 236.937 183.527 177.37 183.548 177.026L183.574 176.823L183.73 176.682C183.792 176.63 231.006 135.177 231.063 135.13C231.126 135.088 290.985 111.302 291.058 111.26L290.829 111.583L291.709 89.3592L291.719 89.0832L291.995 89.0467L329.631 84.3957L329.954 84.354L329.933 84.6769L328.495 106.953L328.329 106.713C328.344 106.719 376.464 120.323 376.485 120.328C376.521 120.359 419.667 144.828 419.699 144.859C419.725 144.87 437.777 191.448 437.798 191.469L438.381 192.969L438.386 192.974ZM437.23 190.01C437.261 190.052 419.469 144.771 419.605 144.984C419.636 145.005 376.225 120.547 376.386 120.625L328.209 107.172L328.027 107.12L328.037 106.932L329.407 84.6561L329.709 84.9373L292.089 89.7082L292.376 89.3957L291.563 111.62L291.558 111.854L291.339 111.943L231.495 135.969C232.433 135.307 183.303 178.703 184.673 177.198L176.063 237.094L175.844 236.505L223.199 278.281C221.896 277.693 284.646 302.943 284.292 302.797L284.855 303.026L284.829 303.635L281.021 384.89L280.87 388.13L279.193 385.349L247.1 332.26L248.027 332.781L165.417 332.625L166.511 330.875L190.256 379.224C188.188 377.453 231.11 413.047 230.589 412.739C229.881 412.37 274.553 441.276 274.381 441.25L275.105 441.719L275.042 442.578L272.183 483.323L270.777 481.693L295.501 483.573L293.824 484.937L299.1 442.443L299.277 441.042L300.688 441.01L359.907 439.75L358.756 440.219L401.011 400.078C399.329 403.078 426.464 347.677 426.084 348.422L425.917 349.614L415.12 293.083L415.808 294.25L372.204 258C375.37 259.463 315.938 236.38 316.678 236.708L315.152 236.12L315.292 234.484L320.98 168.031L321.501 161.953L325.105 166.885L351.782 203.396L349.527 202.453C378.735 197.937 407.751 193.943 437.245 190.005L437.23 190.01Z" fill="#FF7F00"/>
</g>
<path d="M292.755 167.792L286.374 223.745L283.885 223.515L290.27 167.568L292.755 167.792ZM290.27 167.568L286.374 223.745L283.885 223.515L287.786 167.338L290.27 167.568Z" fill="#FF7F00"/>
<path d="M305.453 387.781C317.068 376.167 328.146 365.229 340.505 354.432L340.266 356.792L312.193 317.083L314.115 316.568C311.281 339.927 308.141 363.641 305.453 387.781ZM305.156 390.432C307.771 365.26 309.812 339.552 312.245 313.609L313.911 315.823L343.135 354.698L344.078 355.948L342.901 357.052C330.943 368.458 317.828 379.818 305.156 390.432Z" fill="#FF7F00"/>
<path d="M427.547 181.411C402.474 185.458 365.891 193.599 340.693 199.083L339.745 199.286L339.328 198.38C336.141 191.667 333.25 184.531 328.646 178.724C324.099 173.021 317.318 169.547 310.614 166.198L312.828 164.828L313.068 229.828L311.63 227.964C346.073 237.391 386.302 246.005 411.255 273.563C426.505 290.844 429.667 315.302 426.755 337.411C421.448 381.354 392.823 424.026 350.526 439.51C336.516 444.521 321.26 445.891 306.625 443.568L307.812 442.573L306.797 484.854L306.771 485.885L305.776 485.703L280.87 481.141L280.229 481.026L280.208 480.349L278.974 439.885L279.536 440.625C253.708 433.156 229.104 420.891 208.505 403.479C187.266 385.724 170.979 362.172 161.781 336.042C190.406 335.219 218.75 330.443 247.463 327.979L249.036 327.844L249.469 329.401C253.505 344.172 257.51 359.276 269.12 369.688C272.771 373.125 276.854 376.156 281.073 379.026L277.557 380.922C277.13 355.365 275.641 329.776 275.255 304.083L277.245 306.458C263.859 303.755 250.51 300.682 237.547 296.177C208.62 286.063 179.057 269.865 164.38 241.609C145.505 202.698 169.417 165.318 201.396 142.854C223.812 126.87 249.708 116.786 276.088 109.63L274.516 111.698C274.458 103.974 273.385 96.0937 273.312 87.9844L273.297 86.2448L274.943 85.9896L311.453 80.3333L313.604 80L313.552 82.1406L312.979 106.203L311.213 104.557C367.828 101.01 416.651 120.583 427.552 181.411H427.547ZM427.141 181.125C414.302 120.99 366.078 103.344 309.651 107.974L309.667 106.208L309.885 82.151L311.984 83.9583L275.713 89.9427L277.344 87.9531C277.469 95.6875 278.614 103.542 278.76 111.661L278.786 113.271L277.187 113.724C229.568 126.542 159.948 160.656 163.021 218.344C167.312 257.141 205.588 279.427 239.213 291.359C252.495 296.057 266.297 299.224 280.125 302.057L280.146 304.026C280.417 331.01 281.901 358.099 282.109 385.214C276.578 381.411 270.995 377.568 266.12 372.833C254.078 361.87 249.646 345.568 245.766 330.38L247.771 331.802C219.906 333.87 192.078 338.214 163.885 338.885L165.213 336.932C169.667 349.438 175.698 361.391 183.213 372.354C205.906 405.823 242.068 428.198 280.521 439.281L280.536 439.865L281.844 480.323L281.182 479.536L306.036 483.948L305.016 484.802L305.739 442.516L305.755 441.349C320.463 443.646 335.703 442.167 349.599 436.964C390.463 421.401 417.505 379.411 422.531 336.927C432.234 262.88 368.161 247.224 310.682 231.667L309.234 231.292L309.245 229.797L309.755 164.818L309.776 162.328C329.021 171.313 333.516 178.271 341.562 197.37L340.193 196.672C365.495 191.953 401.859 184.146 427.135 181.125H427.141Z" fill="#FF7F00"/>
<path d="M277.803 166.776C275.506 168.047 273.323 169.219 271.162 170.568C247.094 185.589 243.428 218.104 277.318 221.49L274.74 223.708C274.537 218.917 274.464 214.13 274.422 209.349C274.672 195.255 275.756 180.729 277.803 166.776ZM278.099 166.375C281.047 185.188 279.73 204.708 279.188 223.661L279.131 226.385C240.678 220.583 239.553 172.547 278.099 166.375Z" fill="#FF7F00"/>
<path d="M307.334 385.323C347.917 374.974 356.11 323.896 309.704 315.563L312.433 313.411C312.735 337.422 310.657 361.557 307.334 385.323ZM307.001 385.698C304.839 361.708 306.823 337.328 307.954 313.339L308.063 310.516L310.683 311.188C339.605 317.458 356.771 354.208 332.751 375.99C325.719 382.286 316.365 385.76 307.001 385.698Z" fill="#FF7F00"/>
<path d="M437.678 187.161C408.324 196.359 378.225 206.005 347.079 204.974C335.896 194.391 326.714 181.953 316.376 170.604L317.803 170.104C316.891 192.599 316.35 215.161 318.053 237.563L317.214 236.495C331.381 240.974 345.521 245.635 359.381 251.141C407.777 269.917 435.027 296.63 436.532 350.734C432.11 364.724 425.188 377.984 417.381 390.391C401.704 414.766 380.605 436.24 354.485 449.37C341.433 455.906 327.094 460.12 312.433 461.083L313.271 460.859C313.548 460.781 313.829 460.542 313.954 460.276C312.501 472.292 313.678 490.385 313.631 502.823L313.771 511.964C311.027 507.266 307.99 500.594 304.798 496.401C295.303 482.745 288.506 498.365 283.016 506.188L283.225 498.13C283.334 484.807 284.277 471.146 282.521 457.979C282.48 457.797 282.417 457.557 282.417 457.599V457.573C282.558 457.807 282.829 458.115 283.141 458.203L283.094 458.177L283.006 458.125L282.298 457.729C249.756 439.984 218.855 418.661 193.214 391.693C180.433 378.292 169.167 363.432 159.49 347.63L163.298 347.115C192.381 343.448 221.355 337.797 250.912 339.354L252.298 339.438L252.907 340.698C261.506 359.938 271.532 377.792 285.975 393.234L281.928 394.714C282.641 368.12 281.719 341.563 279.829 315.016L281.61 317.042C268.464 314.224 255.407 310.854 242.725 306.234C135.183 265.958 152.141 177.745 243.657 129.729C256.037 123.229 268.896 117.75 281.98 112.906C282.152 113.766 282.495 115.391 282.667 116.24L282.709 116.401C282.725 116.443 282.704 116.391 282.704 116.391C282.657 116.193 282.204 115.693 281.787 115.651C281.667 115.641 281.271 115.536 280.834 115.766C280.318 116.031 280.141 116.563 280.126 116.745V116.589L280.094 115.734C279.49 107.365 278.6 95.0208 278.032 86.6458C294.219 105.427 306.438 98.1458 318.719 80.5469C318.24 89.0833 317.183 101.729 317.058 110.188C317.058 110.484 317.074 110.792 317.1 111C317.1 111.026 317.136 111.13 317.068 110.958L316.923 110.776C316.725 110.51 316.167 110.505 316.068 110.583C315.844 110.583 315.574 110.984 315.646 110.885C315.626 110.938 315.693 110.766 315.725 110.661C315.881 110.13 316.016 109.521 316.141 108.927L316.324 108.068L317.167 108.224C329.49 110.521 341.719 113.396 353.652 117.266C389.876 128.38 422.219 151.786 437.678 187.167V187.161ZM437.678 187.161C421.85 152.104 389.464 129.167 353.251 118.531C341.344 114.828 329.152 112.109 316.86 109.974L317.886 109.276C317.761 109.901 317.641 110.51 317.449 111.182C317.386 111.375 317.37 111.505 317.193 111.828C316.896 112.458 315.813 112.563 315.464 111.792C314.985 109.958 315.308 108.271 315.271 106.448L315.579 98.9583L316.36 84.0156L318.292 84.6979C313.631 90.9896 308.193 97.526 300.214 99.6458C291.959 101.979 284.032 96.724 278.636 91.026L280.876 90.0469C281.391 97.1042 282.329 108.729 282.86 115.583C282.85 116.604 283.209 117.547 282.131 118.224C281.173 118.719 280.386 118.115 280.12 117.427L280.042 117.198L279.964 116.917L279.568 115.057L281.423 116.104C256.652 125.484 232.574 137.542 212.126 154.5C165.339 192.474 154.292 247.677 208.98 284.484C230.912 299.302 256.714 307.302 282.48 312.682L284.146 313.036L284.261 314.708C286.396 343.297 287.282 372.068 286.417 400.74C278.074 391.359 269.761 381.818 263.157 370.974C257.527 361.849 253.188 352.182 248.61 342.766L250.605 344.109C221.662 342.651 192.683 348.349 163.969 352.026L165.735 348.26C183.73 377.005 207.6 401.771 234.818 421.958C250.709 433.844 267.688 444.411 285.1 453.958C285.792 454.333 286.396 454.948 286.667 455.698C288.271 461.198 287.844 467.01 288.105 472.542C288.199 481.146 288.021 489.708 287.787 498.266L283.574 496.969C294.725 478.969 305.745 486.359 313.37 501.828L309.131 502.906L308.844 480.807C308.938 473.75 308.527 466.677 309.6 459.646C309.73 458.641 310.355 457.469 311.303 456.927L311.626 456.729L312.141 456.698C340.511 454.948 366.709 440.432 386.995 421C407.495 401.422 423.449 376.896 432.995 350.198C432.287 338.964 430.303 320.516 424.381 308.063C412.824 280.297 385.141 264.469 358.344 253.698C344.386 248.031 330.042 243.26 315.683 238.552C314.157 215.688 314.98 192.813 316.167 170.026L316.271 168.016L317.594 169.531C327.235 180.573 338.032 194.443 347.318 203.896C378.214 205.245 408.376 195.974 437.667 187.167L437.678 187.161Z" fill="#FF7F00"/>
<path d="M283.479 175.417C254.667 187.526 247.745 224.38 282.969 232.448L280.042 234.948C279.068 215.036 280.927 195.146 283.474 175.417H283.479ZM283.479 175.417C284.229 194.849 283.469 215.281 284.865 234.667L285.047 237.849C243.766 231.489 246.073 185.713 283.474 175.417H283.479Z" fill="#FF7F00"/>
<path d="M311.448 396.938C352.87 386.177 356.802 336.292 313.943 324.24L317.006 321.844C317.62 347 314.953 372.068 311.448 396.938ZM311.448 396.938C311.735 372.349 313.214 346.552 312.183 321.995L312.078 318.703C322.25 321.302 332.381 325.703 339.526 333.984C361.078 359.151 342.313 393.615 311.448 396.938Z" fill="#FF7F00"/>
<mask id="mask1_1767_194" style="mask-type:luminance" maskUnits="userSpaceOnUse" x="59" y="466" width="476" height="126">
<path d="M59.666 466.667H534.333V591.344H59.666V466.667Z" fill="white"/>
</mask>
<g mask="url(#mask1_1767_194)">
<path d="M446.068 466.948C444.854 466.948 443.682 467.375 442.755 468.151C401.974 502.344 350.438 521.083 297.198 521.083C243.964 521.083 192.427 502.344 151.646 468.151C150.719 467.375 149.552 466.948 148.344 466.948H65.6875C64.7032 466.943 63.7396 467.213 62.9063 467.729C62.073 468.239 61.4011 468.979 60.9688 469.859C60.5365 470.739 60.3594 471.724 60.4584 472.698C60.5625 473.672 60.9375 474.599 61.5417 475.37C89.2969 511.458 124.984 540.687 165.849 560.802C206.708 580.917 251.651 591.375 297.203 591.375C342.76 591.375 387.703 580.917 428.563 560.802C469.427 540.687 505.115 511.458 532.87 475.37C533.474 474.599 533.849 473.672 533.953 472.698C534.052 471.724 533.875 470.739 533.443 469.859C533.01 468.979 532.339 468.239 531.505 467.729C530.672 467.213 529.708 466.943 528.724 466.948H446.068Z" fill="#FF7F00"/>
</g>
<mask id="mask2_1767_194" style="mask-type:luminance" maskUnits="userSpaceOnUse" x="329" y="-1" width="266" height="415">
<path d="M329 -0.114746H594.401V413.333H329V-0.114746Z" fill="white"/>
</mask>
<g mask="url(#mask2_1767_194)">
<path d="M370.838 78.7343C371.458 79.7863 372.432 80.5936 373.583 81.0051C461.218 112.401 524.14 196.219 524.14 294.437C524.135 308.073 522.906 321.672 520.463 335.083C520.245 336.286 520.458 337.526 521.067 338.588L562.135 409.651C562.625 410.489 563.333 411.177 564.192 411.635C565.047 412.094 566.015 412.307 566.984 412.245C567.953 412.182 568.885 411.854 569.677 411.297C570.468 410.734 571.093 409.963 571.474 409.073C586.682 372.771 594.495 333.797 594.453 294.437C594.453 143.239 481.323 18.4738 335.021 -0.0678205C334.057 -0.187613 333.078 -0.0417796 332.198 0.364471C331.312 0.77072 330.562 1.41135 330.026 2.21864C329.489 3.02593 329.187 3.96864 329.156 4.93739C329.125 5.90614 329.37 6.86447 329.854 7.70301L370.838 78.7343Z" fill="#FF7F00"/>
</g>
<mask id="mask3_1767_194" style="mask-type:luminance" maskUnits="userSpaceOnUse" x="0" y="-1" width="267" height="415">
<path d="M0.00585938 -0.114746H266.334V413.333H0.00585938V-0.114746Z" fill="white"/>
</mask>
<g mask="url(#mask3_1767_194)">
<path d="M73.3973 338.588C74.0067 337.526 74.2203 336.286 73.9963 335.083C71.5692 321.671 70.3609 308.067 70.3817 294.437C70.3817 196.218 133.257 112.401 220.939 81.0048C222.09 80.5934 223.059 79.7913 223.673 78.734L264.715 7.73918C265.236 6.89022 265.502 5.90585 265.481 4.91105C265.46 3.91626 265.153 2.94751 264.595 2.11939C264.038 1.29126 263.257 0.640221 262.34 0.244387C261.423 -0.151446 260.413 -0.276445 259.429 -0.114988C113.127 18.4736 0.0119284 143.239 0.0119284 294.437C-0.0349462 333.796 7.77755 372.765 22.9911 409.073C23.3713 409.963 23.9911 410.734 24.7828 411.296C25.5744 411.854 26.5067 412.182 27.4807 412.244C28.4494 412.302 29.413 412.093 30.2723 411.635C31.1265 411.177 31.8348 410.489 32.3244 409.651L73.3973 338.588Z" fill="#FF7F00"/>
</g>
</g>
<defs>
<clipPath id="clip0_1767_194">
<rect width="594" height="591" fill="white"/>
</clipPath>
</defs>
</svg>
